<svg version="1.1" id="Слой_1" xmlns="http://www.w3.org/2000/svg" x="0" y="0" viewBox="0 0 500 500" xml:space="preserve"><style>.st1{fill:#424242}</style><linearGradient id="SVGID_1_" gradientUnits="userSpaceOnUse" x1="60.226" y1="45.2" x2="447.147" y2="462.757"><stop offset=".028" stop-color="#dde3e6"/><stop offset=".286" stop-color="#ebeef0"/><stop offset=".678" stop-color="#fafbfb"/><stop offset="1" stop-color="#fff"/></linearGradient><circle cx="250" cy="250" r="246.5" fill="url(#SVGID_1_)"/><path class="st1" d="M249.9 391.9c-33.2 0-66.5.1-99.7 0-23.4-.1-29.1-8.1-22.4-30.5 9.7-32.5 32.6-52.9 61.8-67.6 3.2-1.6 6.6-2.7 9.6-4.4 9.4-5.4 18.1-6.4 28.8-1.5 16.2 7.4 32.9 5.2 49.4-1.4 4.6-1.9 11.1-2.2 15.7-.5 28.4 10.7 53.1 26.7 69.1 53.4 4.7 7.8 8.2 16.4 10.8 25.2 5.4 18.5-1 27.2-20.1 27.3-34.4.2-68.7 0-103 0z"/><path class="st1" d="M289.9 264.5c-14.5 18.7-43.7 23.4-67.9 11.3-18.3-9.2-30.6-23.5-32.4-44.1-1.4-16.4-2-33.3.3-49.5 4.1-28.9 32.5-50.2 61.8-49.1 31.2 1.2 55.8 23.2 58.7 53.5 1.3 14 .8 28.2.6 42.3 0 2.9-1.3 6.5-3.3 8.4-7.2 7.2-34.8 9.6-44.3 6.6-7.6-2.4-16.8-3-24.4-1-4.2 1.1-9 9.2-9.1 14.2-.2 13.2 16.6 15.4 26.4 13.9 4.8-.7 9-3.7 13.5-4.4 6.4-1 13-1.4 20.1-2.1z"/><path class="st1" d="M320.1 205.6c1.4-21.8-1.2-42.3-15.9-60-18.7-22.5-48.7-31.7-75.4-22.7-28.3 9.5-46.8 33.7-48.2 63.4-.5 12.3-.1 24.7-.3 37.1-.2 10.2-3.6 12.6-13.3 9.4-10.3-3.4-16.6-10.5-17.9-21.5-1.4-12.4-1-24.8 11.2-31.9 6.8-3.9 9.9-9.1 12.2-16.1 11.6-34.4 41.8-55.4 78.4-55.3 35.3.1 64.9 22.2 76.9 56.2 2 5.7 6.9 11.2 11.9 14.8 15.5 11.3 16.1 38.3.7 49.6-6.8 5-12.9 11.1-20.1 15.5-8 4.9-16.5 9.7-25.5 12.3-9.1 2.7-18.4 4.5-27.7 6.2-8.6 1.6-17 4-25.4.2-1.5-.7-2.9-1.6-4-2.9-1.6-2.1-1.3-4.5 0-6.7 4.1-7 15.1-6.9 21.6-4.1 14.2 6 46.1 1.5 56.5-9.9 2.7-3 3.6-8.2 4-12.5.7-6.9.3-14 .3-21.1z"/></svg>