<svg xmlns="http://www.w3.org/2000/svg" viewBox="0 0 500 500"><linearGradient id="a" gradientUnits="userSpaceOnUse" x1="60.226" y1="45.2" x2="447.147" y2="462.757"><stop offset=".028" stop-color="#dde3e6"/><stop offset=".286" stop-color="#ebeef0"/><stop offset=".678" stop-color="#fafbfb"/><stop offset="1" stop-color="#fff"/></linearGradient><circle cx="250" cy="250" r="246.5" fill="url(#a)"/><path d="M403.9 249.8c0-84.9-68.5-153.7-154.1-153.7C165 96.1 96.1 165 96.1 249.8c0 85.5 68.9 154.1 153.7 154.1 85.6 0 154.1-68.5 154.1-154.1zm-251.8-6.2c0-2.8-2.4-5.2-5.2-5.2h-28.5c-2.8 0-5.2 2.4-5.2 5.2 0 3.1 2.4 5.2 5.2 5.2h28.5c2.8 0 5.2-2.1 5.2-5.2zm168.3 117.5c0 3.8-2.8 6.3-6.3 6.3s-5.9-2.4-5.9-6.3c0-3.5 2.4-6.3 5.9-6.3 3.5.1 6.3 2.8 6.3 6.3zm-126.2 0c0 3.8-2.8 6.3-6.6 6.3-3.1 0-6.3-2.4-6.3-6.3 0-3.5 3.1-6.3 6.3-6.3 3.8.1 6.6 2.8 6.6 6.3zm172.1-48.7c0 3.8-3.1 6.3-6.3 6.3-3.1 0-6.3-2.4-6.3-6.3 0-3.5 3.1-6.3 6.3-6.3 3.2.1 6.3 2.8 6.3 6.3zm-212.5 0c0 3.8-2.8 6.3-6.6 6.3-3.1 0-5.9-2.4-5.9-6.3 0-3.5 2.8-6.3 5.9-6.3 3.9.1 6.6 2.8 6.6 6.3zm165.6-173.5c0 3.5-2.4 6.3-5.9 6.3-3.5 0-6.3-2.8-6.3-6.3s2.8-6.3 6.3-6.3c3.4 0 5.9 2.8 5.9 6.3zm-126.3 0c0 3.5-2.4 6.3-5.9 6.3-3.5 0-6.6-2.8-6.6-6.3s3.1-6.3 6.6-6.3c3.5 0 5.9 2.8 5.9 6.3zm172.5 48.7c0 3.1-2.8 6.3-5.9 6.3-3.5 0-6.3-3.1-6.3-6.3 0-3.5 2.8-6.3 6.3-6.3 3.2 0 5.9 2.8 5.9 6.3zm-212.4 0c0 3.1-2.8 6.3-6.3 6.3-3.1 0-5.9-3.1-5.9-6.3 0-3.5 2.8-6.3 5.9-6.3 3.5 0 6.3 2.8 6.3 6.3zm97.3 160.6c-3.1 0-5.6 2.1-5.6 5.2v28.2c0 2.8 2.4 5.2 5.6 5.2 2.8 0 5.2-2.4 5.2-5.2v-28.2c0-3.1-2.4-5.2-5.2-5.2zm0-196.1c2.8 0 5.2-2.1 5.2-5.2v-28.5c0-2.8-2.4-5.2-5.2-5.2-3.1 0-5.6 2.4-5.6 5.2v28.5c.1 3.1 2.5 5.2 5.6 5.2zm97.7 91.5c0 3.1 2.1 5.2 5.2 5.2h27.8c3.1 0 5.6-2.1 5.6-5.2 0-2.8-2.4-5.2-5.6-5.2h-27.8c-3.1-.1-5.2 2.4-5.2 5.2zm-23.9 5.2l-68.2-2.8c-1.7-3.8-5.6-5.9-9.7-6.6-1.4 0-2.4.7-4.2 1l-44.9-49.7c-2.1-2.1-5.9-2.8-9-.4-2.1 2.4-2.1 6.3 0 8.7l45.9 50.4c0 .3-.4 1-.4 1.4 0 3.8 1.4 7.3 4.2 9.4l-36.9 58.4 4.2 1.7 36.2-58.1c1.4.3 2.4 1 3.5 1 4.5.3 8.3-2.1 10.8-5.2l68.2 3.1c3.1 0 5.9-2.4 6.6-5.6-.1-3.2-2.9-6.7-6.3-6.7z" fill-rule="evenodd" clip-rule="evenodd" fill="#424242"/></svg>