<svg version="1.1" id="Слой_1" xmlns="http://www.w3.org/2000/svg" x="0" y="0" viewBox="0 0 500 500" xml:space="preserve"><style>.st1{fill:#424242}</style><linearGradient id="SVGID_1_" gradientUnits="userSpaceOnUse" x1="60.226" y1="45.2" x2="447.147" y2="462.757"><stop offset=".028" stop-color="#dde3e6"/><stop offset=".286" stop-color="#ebeef0"/><stop offset=".678" stop-color="#fafbfb"/><stop offset="1" stop-color="#fff"/></linearGradient><circle cx="250" cy="250" r="246.5" fill="url(#SVGID_1_)"/><path class="st1" d="M167.1 114.3c.3 0 1.1.1 2 .2 9.2.8 16.6-4.7 18.5-13.7 2.6-12.5 14.2-17.8 25.2-11.7 8.8 4.9 17.1 3.1 23.1-5.1 7.2-9.8 20.2-9.9 27.5-.1 6.2 8.3 14.5 10.1 23.4 5 10.5-6 22.5-.6 25 11.2 2.1 9.9 9.6 15.2 19.8 13.9 10.7-1.4 19.8 8 18.3 18.7-.2 1.6-.7 3.1-.8 4.7-.8 8.3 4 15.2 12.5 17.9 8.4 2.7 13.1 9.7 11.8 18.2-.4 2.8-1.8 5.7-3.4 8.1-5.7 8.4-4.9 17 2.8 23.8 9 8 7.6 21.4-2.8 27.4-8.7 5-11.5 13.7-7.4 22.8 5.1 11.2-1.4 22.6-13.7 24-10.1 1.2-15.9 7.7-15.9 17.9 0 11.9-10.2 19.6-21.6 16.3-10.8-3.1-18 .1-22.5 10.1-4.9 10.7-17.5 13.2-26.6 5.6-2.1-1.7-4.4-3.4-6.9-4.3-5.9-2-11.6-1-15.9 3.4-8.5 8.7-23.5 6.7-28.4-5.8-3.3-8.4-12.1-11.8-21.2-8.9-9.8 3.1-19.1-1.5-21.8-10.8-.5-1.8-.6-3.8-.6-5.6-.2-9.7-5.9-16.1-15.6-17.3-13.3-1.7-19.3-12.4-14-24.7 3.7-8.4.7-17.2-7.4-21.8-11.1-6.3-12.5-19.3-3.1-27.9 7.2-6.5 8.1-15.5 2.3-23.4-7.5-10.2-3.5-22.6 8.4-26.5 9.4-3.1 13.9-11 11.8-20.6-2.3-11.5 5.3-21.2 17.2-21zm82.9 191c55 0 100.1-45 100.2-100.1.1-55.4-44.8-100.6-99.9-100.7-55.6 0-100.8 44.8-100.9 100.1 0 55.6 44.9 100.7 100.6 100.7z"/><path class="st1" d="M219.6 423.4c-5.1-8.2-9.7-15.6-14.3-23.1-4.2-6.8-8.5-13.6-12.6-20.6-1.3-2.2-2.4-2.6-4.8-1.9-15.4 4.7-30.8 9.3-46.2 14l-2.8.7c9.6-25.2 19.1-50 28.6-75 .9.5 1.5.8 2.1 1.2 7 4.8 14.5 5.9 22.7 3.2 5.5-1.8 9.2-.1 11.6 5.1 7.1 16.2 26.9 20.4 39.9 8.6 4.4-3.9 8.6-4 13-.1 13.1 11.7 32.4 7.6 39.8-8.4 2.7-5.9 5.7-7.3 11.9-5.5 8.5 2.6 16.3 1.1 23.9-4.4 9.6 25.1 19 49.9 28.8 75.4-4.2-1.2-7.8-2.3-11.4-3.4-12.6-3.8-25.1-7.5-37.7-11.4-2.4-.7-3.5-.2-4.8 1.9-8.1 13.4-16.3 26.7-24.6 40.1-.6 1-1.3 1.9-2.3 3.5-10.1-26.5-20.1-52.5-30.4-79.3-10.3 26.8-20.2 52.8-30.4 79.4zm30.5-310.1c50.4 0 91.7 41.2 91.7 91.5 0 51.4-40.9 92.3-92.1 92.4-50.6 0-91.6-41.2-91.6-92.3.1-50.5 41.3-91.6 92-91.6zm-18.3 138.5c.9-.8 1.6-1.5 2.4-2.2 13.9-13.8 27.7-27.7 41.5-41.5 10.3-10.3 20.7-20.6 31-31 4-4 4.9-8.3 2.9-12.6-2-4.1-6.1-6.5-10.7-5.5-2.4.5-5 2-6.7 3.7-19.3 19.1-38.5 38.4-57.8 57.6-.8.8-1.7 1.6-2.6 2.5-.9-.8-1.7-1.5-2.4-2.2-7.4-7.4-14.8-14.9-22.2-22.2-4-3.9-9.3-4.3-13.5-1.1-5.2 3.9-5.6 10.9-.8 15.8 12.4 12.5 24.8 24.9 37.3 37.3.3.4.9.8 1.6 1.4z"/></svg>