<svg version="1.1" id="Слой_1" xmlns="http://www.w3.org/2000/svg" x="0" y="0" viewBox="0 0 500 500" xml:space="preserve"><style>.st1{fill:#424242}</style><linearGradient id="SVGID_1_" gradientUnits="userSpaceOnUse" x1="60.226" y1="45.2" x2="447.147" y2="462.757"><stop offset=".028" stop-color="#dde3e6"/><stop offset=".286" stop-color="#ebeef0"/><stop offset=".678" stop-color="#fafbfb"/><stop offset="1" stop-color="#fff"/></linearGradient><circle cx="250" cy="250" r="246.5" fill="url(#SVGID_1_)"/><path class="st1" d="M250 123.6l-5.5 16.9h-17.8l14.4 10.5-5.5 16.9 14.4-10.4 14.4 10.4-5.5-16.9 14.4-10.5h-17.8zM210.5 138l-4.1 12.7H193l10.8 7.9-4.1 12.7 10.8-7.9 10.8 7.9-4.1-12.7 10.8-7.9h-13.3zm17.7 175l-2.9 9.8h5.9zm-50.1-105.2c0 5 4.1 9.1 9.1 9.1s9.1-4.1 9.1-9.1-4.1-9.1-9.1-9.1-9.1 4.1-9.1 9.1zm1.5-40.3l-2.8 8.4h-8.9l7.2 5.3-2.7 8.4 7.2-5.2 7.2 5.2-2.8-8.4 7.2-5.3h-8.9zM289.5 138l-4.1 12.7H272l10.8 7.9-4.1 12.7 10.8-7.9 10.8 7.9-4.1-12.7 10.8-7.9h-13.4zm33.7 37.9l-2.8-8.4-2.7 8.4h-8.9l7.2 5.3-2.8 8.4 7.2-5.2 7.2 5.2-2.7-8.4 7.2-5.3zm-115.3 85.4s.7 1.5 1.5 3.4 3.5 3.4 6.1 3.4h69.2c2.5 0 5.3-1.5 6.1-3.4l1.5-3.4c-11.4-2.5-26.1-4-42.1-4-16.3 0-31 1.5-42.3 4z"/><path class="st1" d="M122.5 240l-6.9 11.3 10 8.6-5 12.2 11.2 6.9-.9 3.7h11.6c-7.8-15.9-12.2-33.7-12.2-52.6 0-66.1 53.6-119.6 119.6-119.6 66.1 0 119.6 53.6 119.6 119.6 0 18.9-4.4 36.7-12.2 52.6h11.6l-.9-3.7 11.2-6.9-5-12.2 10-8.6-6.9-11.3 8.6-10-8.6-10 6.9-11.3-10-8.6 5-12.2L368 181l3.1-12.8-12.2-5.1 1-13.2-12.8-3.1-1-13.2-13.2-1-3.1-12.8-13.2 1-5.1-12.2-12.8 3.1-6.9-11.2-12.2 5-8.6-10-11.3 6.9-10-8.6-10 8.6-11.3-6.9-8.6 10-12.2-5-6.9 11.2-12.8-3.1-5.1 12.2-13.2-1-3.1 12.8-13.2 1-1 13.2-12.8 3.1 1 13.2-12.2 5.1 3.1 12.8-11.2 6.9 5 12.2-10 8.6 6.9 11.3-8.6 10 9 10z"/><path class="st1" d="M303.7 207.8c0 5 4.1 9.1 9.1 9.1s9.1-4.1 9.1-9.1-4.1-9.1-9.1-9.1-9.1 4.1-9.1 9.1zM294 257l15.5-35.9c-3.5-.9-6.5-3.1-8.3-6-5.4 3.9-12.1 6.2-19.3 6.2-9.1 0-17.3-3.7-23.3-9.6-2.3 1.9-5.3 3-8.5 3s-6.2-1.1-8.5-3c-6 5.9-14.2 9.6-23.3 9.6-7.2 0-13.9-2.3-19.3-6.2-1.9 3-4.8 5.2-8.3 6L206 257l.9-.2c12.1-2.6 27.4-4.1 43.1-4.1 15.7 0 31.1 1.5 43.1 4.1l.9.2zm-44-46.9c5 0 9.1-4.1 9.1-9.1s-4.1-9.1-9.1-9.1-9.1 4.1-9.1 9.1 4.1 9.1 9.1 9.1zm-90.3 111.4c1.9 0 3.6.7 5.1 1.8 0-.5.1-1.1.1-1.8 0-5.2-2.1-9.5-5.5-9.5-2.7 0-5.2 3.8-5.2 9.1 0 .9 0 1.7.2 2.5 1-1 2.6-2.1 5.3-2.1zm-38.3 37.4v-58.1H91.6l27.3 32.6-27.3 32.7H162l-20.1-7.2z"/><path class="st1" d="M126.8 353.4h246.3v-65.3H126.8v65.3zm197.8-47.8h15.5v5.8h-2.4l2.6 4.8c.3.9 1.2 2.9 1.4 3.7h.2c.2-.9 1.2-2.8 1.7-3.9l2.5-4.6h-2.5v-5.8h12.2v5.8h-2.4l-8.4 14.7v5.3h2.5v5.9H333v-5.9h2.6V326l-8.8-14.6h-2.2v-5.8zm-30.6 0h30.4v11.8h-6.7v-5.8h-3.8v19.6h3.8v6h-16.8v-6h3.7v-19.6h-3.9v5.8H294v-11.8zm-16.9 25.6h2.9v-19.6h-2.9v-6h15v6h-2.8v19.6h2.8v6h-15v-6zm-27.6 0h2.5v-19.6h-2.5v-6h14.3v6h-2.4v19.6h5.8v-5.8h7.6v11.8h-25.4v-6zm-37.7.1h3.1l6.1-19.9h-1.9v-5.8h17.4l8 25.7h3.2v5.9h-18.2v-5.9h4.3l-.9-3.1h-9.3l-.9 3.1h3.5v5.9h-14.4v-5.9zm-33.4-25.7h14.4v5.8h-2.4v9.8c0 7.3 1.6 8.8 4.5 8.8 2.8 0 4.6-1.1 4.6-8.9v-9.6H197v-6h13.4v5.8H208v11c0 10.7-4.5 15.6-13 15.6-9.1-.3-14-5.1-14-15.3v-11.2h-2.5v-5.8zm-19-.2c10.7 0 15.5 6.4 15.5 16.1 0 4.8-1.3 8.6-3.8 11.3.4 1.4.9 2.9 2 2.9.8 0 .9-1.3.9-2v-1.3h3v2.3c0 4-2.3 7.2-6.8 7.2-3.7 0-6-2.4-7-5-1.1.2-2.3.3-3.5.3-9.1 0-15.5-5.3-15.5-16 0-9.2 6.1-15.8 15.2-15.8zm69.3 59l9.1-5.5h-13.9zm42.6 0l4.8-5.5h-13.9z"/><path class="st1" d="M408.4 300.8h-29.8v58.1h-20.5l-20.1 7.2h70.4l-27.3-32.7zM250 366.1l8.5-7.2h-17zm-90.3-40.5c-1.5 0-2.4 1.5-3 3.3.9 1 1.9 1.5 3 1.5.9 0 1.7-.4 2.4-1-.3-2.2-.9-3.8-2.4-3.8z"/></svg>