<svg version="1.1" id="Слой_1" xmlns="http://www.w3.org/2000/svg" x="0" y="0" viewBox="0 0 500 500" xml:space="preserve"><style>.st1{fill:#424242}</style><linearGradient id="SVGID_1_" gradientUnits="userSpaceOnUse" x1="60.226" y1="45.2" x2="447.147" y2="462.757"><stop offset=".028" stop-color="#dde3e6"/><stop offset=".286" stop-color="#ebeef0"/><stop offset=".678" stop-color="#fafbfb"/><stop offset="1" stop-color="#fff"/></linearGradient><circle cx="250" cy="250" r="246.5" fill="url(#SVGID_1_)"/><path class="st1" d="M225.3 308.7c-2.1 1.7-3.7 3.4-5.6 4.7-4.6 3-9.2 3-13.8-.2-5.9-4.1-11.7-8.3-17.8-12.2-5.1-3.3-6.3-8-5.3-13.5.4-2.2 1.4-4.4 2.3-6.8-.5-.4-1.2-1-1.9-1.5-4.3-3.1-5.5-6.6-3.6-11.7.4-1 .9-2 1.4-3 15.9-28.5 31.7-57.1 47.6-85.5 12.4-22.2 24.9-44.2 37.3-66.4 2.3-4.1 5.2-7.5 9.8-9 5.6-1.8 10.9-1 15.7 2.3 12.3 8.5 24.4 17.2 36.6 25.8 8.3 5.8 16.4 11.9 24.9 17.4 8.3 5.5 9.2 16 5.3 22.6l-1.2 1.8c-15.2 17.7-30.4 35.4-45.6 53-23.1 26.8-46.3 53.7-69.4 80.5-.9 1.1-1.9 2.2-3 3.1-3.2 2.6-8.1 2.9-11.3.3-.8-.6-1.7-1.1-2.4-1.7zm-23.1-64.4c17.1 12.1 34.1 24.1 51.4 36 28-32.5 55.8-64.9 83.8-97.4-24.2-16.9-48.1-33.6-72.3-50.4-21.1 37.3-41.9 74.4-62.9 111.8zm-4.3 8.1c-.5.8-.8 1.1-1.1 1.5-2.8 5.1-5.7 10.2-8.5 15.2-1.1 1.9-1 2.1.9 3.4 14 9.9 28.1 19.7 42.1 29.5 2 1.4 2 1.4 3.7-.5l11.4-12.9c.4-.5.7-1 1.2-1.7-16.6-11.4-33-22.9-49.7-34.5zm71.5-127.6c24.6 17.2 49 34.3 73.6 51.5 2.3-2.7 4.4-5.2 6.6-7.6 1.8-2 2.4-4.3 2.2-6.8-.1-1.3-.5-2.4-1.6-3.5-.6.8-1.1 1.4-1.6 2.1-1.8 2.5-3.5 5-5.2 7.4-1.6 2.1-4.2 2.7-6.1 1.4-1.9-1.2-2.4-4-1.2-6.2.5-.9 1.1-1.7 1.7-2.6 1.7-2.5 3.4-5 5.2-7.5-1.4-1.4-2.7-2.5-4.4-3-.4.6-.9 1.1-1.2 1.6-1.9 2.7-3.8 5.5-5.8 8.2-1.5 2-4.1 2.4-6.2 1-1.9-1.3-2.4-3.8-1.1-6 .5-.8 1.1-1.6 1.6-2.4 1.8-2.5 3.5-5.1 5.4-7.9-1.6-1.1-3-2.1-4.5-3.2-.7.9-1.3 1.7-1.8 2.4-1.8 2.5-3.5 5.1-5.4 7.6-2 2.7-5.5 2.5-7.2-.2-1-1.6-.9-3.2.1-4.7 1.6-2.4 3.3-4.7 4.9-7.1.7-1 1.3-2 2.1-3.1-1.6-1.1-2.9-2-4.4-3.1-1.8 2.5-3.4 4.7-5 7-.9 1.2-1.7 2.5-2.7 3.6-1.4 1.5-3.4 1.6-5.3.5-1.8-1.1-2.6-3-2-4.9.2-.7.7-1.4 1.1-2.1 1.6-2.4 3.3-4.7 4.9-7.1.5-.7.9-1.4 1.4-2.3-1.6-1.1-2.9-2-4.4-3-.6.8-1.1 1.4-1.6 2.1l-5.1 7.5c-1.7 2.4-4.4 3-6.4 1.5s-2.8-4-.9-6.5c1.7-2.1 3.1-4.5 4.6-6.7.7-1 1.3-1.9 2-3.1-1.6-1.1-2.9-2-4.4-3.1-.6.8-1.1 1.4-1.6 2l-4.8 6.9c-.5.6-.9 1.3-1.5 1.8-2.3 2.1-5.7 1.3-6.9-1.6-.8-1.8-.3-3.3.8-4.7 1.8-2.5 3.6-4.9 5.3-7.4.4-.5.7-1.2 1-1.8-3.2-1-7.1.2-8.7 2.8-1.8 3.4-3.5 6.7-5.5 10.3zm-52 178.4c-2-1.4-4-2.9-6-4.3-2.1-1.5-4.2-2.9-6.3-4.4-2-1.4-4-2.9-6.1-4.3-2.1-1.4-4-3-6.6-4.3-.4 1.6-.8 2.8-1.1 4-.3 1.6.2 2.7 1.6 3.7 5.9 4.1 11.7 8.3 17.6 12.4.6.4 1.3.8 1.9.7 2.2-.2 4-1.1 5-3.5zm-42.5 94.2c-9.8-.1-17.4-2.4-24.5-6.6-2.6-1.6-4.8-3.7-6.7-6-4.8-5.8-5-12.3-2.9-19.2 2.1-7 6.9-11.4 13.8-13.4 4.4-1.3 9-2.2 13.5-3.3 2.3-.6 4.6-1.3 6.8-2.2 5.1-2.1 8.3-6.1 9.7-11.4.4-1.5.7-3.1 1-4.7.5-2.4 2-4 4.3-4.2 1.7-.2 3.2.4 4.1 1.9 5.3 8.8 11.3 17.2 15.4 26.7 1.9 4.3 3.4 8.8 4.1 13.5 1.6 10.8-3.1 19.6-13.1 24.1-4.4 2-9 3.2-13.8 3.8-4.5.5-8.9.7-11.7 1zm17-55c-.3.4-.6.7-.8 1-3.5 6.9-9.4 10.9-16.7 12.9-4 1.1-8.1 1.8-12.1 2.8-2.9.7-5.7 1.5-8.2 3.1-6.7 4.4-7.6 12.8-1.9 18.4.5.4.9.9 1.4 1.3 4.7 3.9 10.4 5.5 16.3 6.1 6.2.6 12.4-.1 18.5-1.3 3.3-.6 6.5-1.6 9.4-3.3 4.9-2.8 7.1-7 6.4-12.6-.4-3-1.1-6-2.1-8.8-2.2-6.6-5.8-12.6-9.3-18.6-.1-.3-.5-.6-.9-1z"/><path class="st1" d="M272.2 229.6c-17.5-.4-31.1-14.5-30.6-32 .5-13.9 10.5-30 31.6-29.8 15.1.1 30.8 12.1 30.1 32.5-.5 15.8-15.1 29.6-31.1 29.3zm.1-8.8c12.1 0 22.4-10 22.2-21.7-.1-11.5-7.9-22.6-22.3-22.6-12.5 0-21.9 10.3-21.9 22.1.1 14.3 12.1 22.3 22 22.2z"/></svg>