<svg width="80" height="82" fill="none" xmlns="http://www.w3.org/2000/svg"><g clip-path="url(#clip0_49_330)" fill="#424242"><path d="M38.24 81.114c-1.008 0-2.016-.459-2.928-1.394-4.576-4.674-9.136-9.364-13.712-14.055L7.888 51.611c-.896-.919-1.792-1.82-2.688-2.74-.992-1-1.984-2.016-2.976-3.033-1.808-1.87-1.824-4.084-.016-5.953 5.488-5.625 10.96-11.25 16.448-16.86l19.904-20.4c.896-.918 1.952-1.361 3.216-1.361h.368c2.704 0 5.456-.099 8.112-.197C52.928.969 55.696.87 58.432.87H74.88c1.44 0 2.496.36 3.216 1.099.72.738 1.056 1.82 1.04 3.28l-.096 9.578c-.08 7.56-.16 15.366-.192 23.041-.016 2.264-.72 3.986-2.304 5.593-9.2 9.348-18.512 18.91-27.52 28.142l-7.92 8.118c-.88.935-1.872 1.394-2.864 1.394zM5.104 39.442L3.44 41.148c-1.136 1.164-1.12 2.295.016 3.46a519.938 519.938 0 002.976 3.018c.896.918 1.808 1.82 2.704 2.738 4.576 4.674 9.136 9.365 13.712 14.055L36.56 78.474c1.136 1.164 2.24 1.18 3.36.033l1.728-1.772c-.512-.245-1.024-.754-1.712-1.475l-11.36-11.628C21.152 56.039 13.728 48.429 6.32 40.836a7.574 7.574 0 00-.384-.377c-.384-.41-.672-.69-.832-1.017zm1.728-.574c.096.098.208.213.32.311l.384.394 22.256 22.813 11.344 11.61c.4.41.88.92 1.136 1.067.16-.148.432-.492.688-.853l-.144-.148-8.208-8.43c-8.832-9.02-17.952-18.384-26.912-27.584l-.048-.05-.08.083c-.224.246-.416.442-.576.623-.064.05-.112.115-.16.164zm3.312-4.592c.288.131.512.344.688.508A5327.897 5327.897 0 0029.76 54.218c3.376 3.46 6.752 6.905 10.128 10.365 1.968 2 3.92 4.002 5.888 6.019.208.213.416.443.608.656.08.082.16.18.24.262l.048.05 1.152-1.181c9.008-9.233 18.32-18.795 27.536-28.143 1.248-1.263 1.792-2.575 1.792-4.346.032-7.691.112-15.498.192-23.058l.096-9.578c.016-.967-.176-1.64-.544-2.017-.384-.393-1.024-.59-1.984-.59H58.464c-2.704 0-5.456.098-8.112.197-2.784.098-5.68.196-8.528.196h-.016c-.816 0-1.44.263-2 .837-6.624 6.806-13.264 13.595-19.904 20.401-3.264 3.33-6.512 6.659-9.76 9.988zm54.848-13.153h-.032c-3.024-.016-5.488-2.558-5.488-5.658 0-1.541.56-2.985 1.6-4.034 1.024-1.05 2.432-1.624 3.936-1.624h.032a5.452 5.452 0 013.888 1.69 5.65 5.65 0 011.6 4 5.782 5.782 0 01-1.68 3.97c-1.04 1.05-2.448 1.656-3.856 1.656zm.016-9.561c-1.056 0-2.016.394-2.72 1.115-.704.722-1.088 1.706-1.088 2.788 0 2.132 1.696 3.887 3.776 3.903h.016c.96 0 1.92-.426 2.64-1.164A3.997 3.997 0 0068.8 15.48c0-1.033-.384-2-1.104-2.738-.72-.738-1.664-1.165-2.672-1.165 0-.016-.016-.016-.016-.016z"/><path d="M34.816 25.06l-3.04-2.805-1.264 1.082a4.2 4.2 0 01.528.443c.752.689 1.376 1.574 1.552 2.493.24.951.016 1.951-.816 2.903-1.312 1.492-3.744 1.672-5.856-.28-.96-.885-1.552-1.836-1.792-2.476l1.584-1.098c.192.492.704 1.36 1.424 2.017.768.705 1.904 1.082 2.64.23.736-.837.528-1.936-1.04-3.379a9.178 9.178 0 00-1.12-.902l4.224-3.772 4.32 3.985-1.344 1.558zm5.12 9.134c-2.176 2.476-4.672 3.296-6.656 1.46-2.032-1.87-1.28-4.576.704-6.856 2.048-2.345 4.624-3.296 6.656-1.426 2.08 1.935 1.232 4.624-.704 6.822zm-4.128-3.706c-1.616 1.853-1.952 3.132-1.264 3.772.72.656 1.904.098 3.52-1.739 1.568-1.787 2.016-3.067 1.28-3.755-.656-.607-1.872-.164-3.536 1.722zm10.832 9.889c-2.176 2.476-4.672 3.296-6.656 1.46-2.032-1.87-1.28-4.576.704-6.856 2.048-2.345 4.624-3.296 6.656-1.427 2.08 1.936 1.232 4.625-.704 6.823zm-4.112-3.707c-1.616 1.854-1.952 3.133-1.264 3.772.72.656 1.904.099 3.52-1.738 1.568-1.788 2.016-3.067 1.28-3.756-.672-.606-1.888-.164-3.536 1.722zm7.648 7.052a34.899 34.899 0 001.728-2.082l1.6 1.476-.656.918.032.017c.992-.23 1.968.049 2.832.836 1.296 1.197 1.44 3.411-.256 5.346-1.936 2.198-4.208 1.985-5.536.771-.72-.656-1.008-1.476-.928-2.115l-.032-.017-2.64 3.018-1.84-1.69 5.696-6.478zm.592 3.117a2.342 2.342 0 00-.304.426c-.32.623-.24 1.394.288 1.886.8.738 1.872.492 2.768-.541.848-.968 1.072-2.083.24-2.837-.512-.476-1.328-.509-1.936-.066-.112.082-.24.197-.336.295l-.72.837zm3.856 6.445c.592-.69 1.456-.738 2.096-.148.624.574.656 1.443.064 2.148-.576.656-1.44.738-2.096.132-.624-.574-.64-1.476-.064-2.132z"/></g><defs><clipPath id="clip0_49_330"><path fill="#fff" d="M0 0h80v82H0z"/></clipPath></defs></svg>