<svg width="96" height="96" fill="none" xmlns="http://www.w3.org/2000/svg"><path d="M66.317 22.234c-2.496 14.15-4.973 28.128-7.45 42.163h-1.21c-8.563 0-17.145.019-25.708-.02-.922 0-1.344.135-1.498 1.21-.845 5.357-6.336 9.178-11.347 7.987-3.571-.844-5.76-4.185-5.126-7.795.076-.403.134-.806.23-1.344H1.459c.192-1.152.327-2.15.5-3.149 2.227-12.633 4.473-25.267 6.681-37.9.154-.864.46-1.172 1.382-1.172 18.375.039 36.768.02 55.143.02h1.152zM64.8 23.482h-1.325c-17.414 0-34.829 0-52.262-.039-.999 0-1.344.269-1.517 1.248-1.92 11.04-3.898 22.08-5.837 33.12-.307 1.709-.595 3.437-.902 5.261.46.02.787.058 1.133.058 3.206 0 6.412-.02 9.6.019.748 0 1.17-.211 1.555-.864 1.401-2.343 3.437-3.917 6.086-4.627 4.09-1.095 7.891.787 8.947 4.473.23.787.538 1.018 1.325 1.018 8.371-.02 16.723-.039 25.095 0 .844 0 1.17-.23 1.324-1.095a9392.278 9392.278 0 015.607-31.91c.384-2.15.749-4.32 1.171-6.662zM20.89 72.499c3.532-.038 7.008-2.63 8.064-6.029 1.401-4.512-1.69-8.39-6.202-7.814-3.629.46-6.758 3.398-7.469 7.027-.73 3.725 1.863 6.855 5.607 6.816zm46.963-8.083H59.77c.307-1.824.595-3.533.902-5.242 1.479-8.332 2.957-16.646 4.397-24.979.153-.94.441-1.305 1.478-1.286 3.264.077 6.528.057 9.812.019 1.632-.02 2.88.576 3.878 1.92 2.88 3.86 5.78 7.7 8.755 11.482.768.979 1.805 1.785 2.822 2.534 2.362 1.728 3.053 4.051 2.573 6.816-.288 1.728-.633 3.437-.979 5.165-.46 2.304-1.92 3.513-4.262 3.533-1.306.019-2.612.057-3.917-.02-.749-.038-.98.23-1.075.96-.596 4.628-4.781 8.372-9.39 8.448-4.569.077-7.564-3.206-7.122-7.756.057-.461.115-.922.21-1.594zm-6.547-1.286c2.093 0 4.05-.039 5.99.019.768.019 1.229-.192 1.651-.903 1.383-2.304 3.399-3.84 5.99-4.588 4.071-1.152 8.122.787 9.12 4.8.135.556.423.672.942.672 1.401-.02 2.822 0 4.224-.02 1.593-.019 2.65-.921 2.937-2.496.307-1.593.538-3.187.903-4.761.614-2.611-.097-4.666-2.305-6.202-.864-.614-1.785-1.248-2.419-2.054a599.32 599.32 0 01-9.004-11.827c-.826-1.095-1.786-1.613-3.15-1.594-2.898.038-5.779.058-8.678-.02-.979-.018-1.21.385-1.344 1.21-1.248 7.22-2.534 14.42-3.82 21.62-.327 1.996-.673 3.993-1.037 6.144zm13.248 9.37c3.859.018 7.603-3.111 8.313-6.894.768-4.147-2.15-7.372-6.297-6.95-3.667.365-6.97 3.437-7.623 7.104-.672 3.686 1.863 6.72 5.607 6.74z" fill="#424242"/><path d="M17.453 66.182c.096-3.206 3.168-5.76 6.355-5.26 1.978.307 3.38 2.092 3.264 4.128-.153 2.918-2.784 5.356-5.702 5.28-2.323-.058-3.994-1.824-3.917-4.148zm5.491-4.07c-2.112 0-4.185 2.016-4.224 4.128-.02 1.574 1.171 2.784 2.784 2.822 2.112.039 4.3-2.092 4.3-4.204-.018-1.556-1.247-2.746-2.86-2.746zM65.856 48.71c.365-2.035.71-4.032 1.056-6.01.326-1.862.672-3.724.98-5.587.095-.614.306-.883.979-.883 1.862.039 3.724-.019 5.568.039 1.766.038 3.168.806 4.166 2.285 1.325 1.958 2.688 3.916 3.993 5.894 1.268 1.94.077 4.358-2.227 4.397-4.723.057-9.427.019-14.15 0-.077 0-.135-.039-.365-.135zm1.517-1.113h1.133c3.744 0 7.488-.02 11.232 0 .825 0 1.478-.173 1.92-.922.48-.806-.039-1.363-.442-1.958-1.19-1.767-2.4-3.533-3.571-5.3-.71-1.056-1.613-1.824-2.918-1.862a60.885 60.885 0 00-4.954.02c-.269.018-.672.383-.749.671-.25.96-.384 1.959-.557 2.938-.364 2.093-.71 4.186-1.094 6.413zm9.389 13.267c2.707.058 4.435 2.323 3.84 5.03-.519 2.381-2.65 4.244-5.088 4.455-2.746.23-4.82-2.055-4.378-4.8.46-2.688 2.938-4.743 5.626-4.685zm2.668 4.07c.02-1.766-1.382-3.014-3.168-2.803-1.766.192-3.436 1.709-3.801 3.456-.403 1.843.806 3.418 2.65 3.495 2.13.057 4.281-1.997 4.32-4.148zM14.726 36.595h7.7v2.343h-4.858v2.88h4.531v2.323h-4.531v5.069h-2.842V36.594zm9.85.173c.922-.154 2.266-.269 3.802-.269 1.862 0 3.187.288 4.07.998.768.596 1.171 1.498 1.171 2.65 0 1.594-1.133 2.688-2.227 3.091v.058c.883.365 1.363 1.171 1.69 2.342.384 1.44.768 3.092 1.017 3.572h-2.918c-.192-.365-.5-1.383-.864-2.938-.365-1.594-.902-1.997-2.074-2.016h-.845v4.953h-2.822V36.768zm2.822 5.434h1.114c1.42 0 2.266-.71 2.266-1.825 0-1.132-.788-1.747-2.093-1.747-.691 0-1.095.039-1.287.096v3.476zm15.782 1.67h-4.645v2.995h5.184v2.343h-8.026V36.594h7.757v2.343h-4.916v2.61h4.647v2.324zm9.985 0h-4.646v2.995h5.184v2.343h-8.026V36.594h7.757v2.343h-4.915v2.61h4.646v2.324z" fill="#424242"/></svg>