<svg width="81" height="83" fill="none" xmlns="http://www.w3.org/2000/svg"><path fill-rule="evenodd" clip-rule="evenodd" d="M55.63 1.793c1.167.016 2.188.182 3.111.548.94.381 1.798.979 2.64 1.859 2.463 2.573 4.504 6.706 6.011 11.155 1.815 5.345 2.884 11.155 2.997 15.288.049 1.478 0 2.972-.113 4.665a163.109 163.109 0 01-.502 5.777c-.098 1.062-.34 2.258-.584 3.436-.194.98-.388 1.959-.502 2.822a61.746 61.746 0 00-.373 4.25c-2.04-3.752-1.879-11.222-1.62-17.065.082-1.76.146-3.403.146-4.78 0-2.59-2.56-4.284-5.848-5.08a18.95 18.95 0 00-4.163-.498 18.97 18.97 0 00-4.164.398c-3.223.714-5.734 2.374-5.783 5.046-.114 6.126-.55 11.886-1.005 17.862-.097 1.228-.08 2.307-.178 3.586 0-.698-.016-1.395-.032-2.125a289.892 289.892 0 00-.292-6.441 129.28 129.28 0 00-.534-6.507c-.097-.93-.21-1.876-.324-2.822-.13-.947-.26-1.893-.438-2.889-.21-1.245-.405-2.506-.502-3.884a28.68 28.68 0 01-.032-4.432 46.42 46.42 0 01.712-5.628 33.241 33.241 0 011.49-5.395c.681-1.81 1.524-3.685 2.674-5.245 1.166-1.594 2.64-2.889 4.6-3.536a7.2 7.2 0 011.28-.315c.47-.034.908-.067 1.329-.05zm12.653 50.63c-.08-.133-.648-1.046-.713-1.196-1.879-3.95-1.571-11.022-1.312-16.716.081-1.76.146-3.386.146-4.747 0-2.324-2.398-3.885-5.492-4.632a18.82 18.82 0 00-3.79-.481l.064 2.091c.519.05 1.02.133 1.507.25a10.138 10.138 0 015.362 3.17.475.475 0 01-.033.648.448.448 0 01-.631-.034 9.349 9.349 0 00-4.893-2.905c-.42-.1-.858-.166-1.28-.215l.033 1.245.049 1.676c.178.017.356.05.55.083a11.232 11.232 0 015.573 2.673c.178.166.21.465.032.647a.42.42 0 01-.631.033 10.135 10.135 0 00-5.12-2.456l-.372-.05.032 1.195.033 1.361c.21.017.405.05.6.1 1.846.365 3.45 1.328 4.794 2.573.178.166.21.465.033.647a.42.42 0 01-.632.033c-1.231-1.128-2.706-2.025-4.374-2.357-.13-.033-.276-.05-.405-.066l.032 1.045.081 2.806.324.05c1.442.265 2.835.813 4.374 1.71a.47.47 0 01.162.63c-.13.216-.405.3-.615.166-1.458-.846-2.754-1.36-4.099-1.61l-.13-.033.017.315.032 1.013c.535.614 1.296 1.145 2.106 1.693.81.565 1.669 1.145 2.365 1.876.227.249.438.498.632.78.081.116.146.216.227.332v-.033l.275.548.017.016v.017c2.154 4.333.712 11.487-.195 15.97l-.097.447c-.227 1.096-.438 2.175-.68 3.22a83.657 83.657 0 01-.746 3.055 23.821 23.821 0 01-.696 2.158 46.999 46.999 0 01-.924 2.208c-.453 1.013-.988 1.992-1.603 2.722-.648.764-1.41 1.245-2.285 1.212-3.013-.1-4.584-6.74-5.394-10.176-.098-.415-.179-.78-.26-1.079-.631-2.457-1.506-6.142-1.798-9.827-.307-3.702-.032-7.42 1.653-9.91l.016-.017.016-.016.016-.017.195-.282v.017c.162-.2.324-.399.502-.582.26-.282.567-.53.875-.763.826-.598 1.684-.98 2.495-1.361.453-.2.89-.415 1.296-.631.356-.2.664-.415.923-.664.243-.232.47-.515.648-.847l-.032-1.145v-.299c-1.167-.15-2.382-.133-3.775.033-.243.033-.47-.166-.502-.415a.474.474 0 01.405-.514c1.41-.15 2.64-.183 3.84-.05l-.082-2.839-.032-1.012c-1.183-.083-2.447.1-3.807.68a.438.438 0 01-.584-.249.462.462 0 01.243-.597c1.475-.614 2.852-.83 4.131-.747l-.048-1.395-.032-1.162c-1.442-.1-2.9.133-4.245.847a.45.45 0 01-.615-.2.472.472 0 01.194-.63c1.474-.78 3.078-1.063 4.633-.963l-.049-1.743-.032-1.178c-1.506-.1-3.062.1-4.552.547a.462.462 0 01-.567-.315.478.478 0 01.308-.581c1.555-.482 3.191-.697 4.779-.598l-.065-2.058a18.4 18.4 0 00-3.872.398c-3.03.664-5.395 2.191-5.427 4.598-.113 6.126-.55 11.886-1.004 17.895l-.243 3.287c0 .066-.033.465-.097.714-.098.365-.276.614-.292.714a125.05 125.05 0 01-.243 5.577c-.081 1.544-.178 3.121-.227 4.765-.08 2.97.097 5.776.875 8.432.777 2.673 2.17 5.163 4.503 7.487.827.813 1.718 1.527 2.657 2.009.843.431 1.734.68 2.64.68.81 0 1.556-.116 2.269-.348a7.33 7.33 0 002.057-1.046c1.523-1.08 2.77-2.308 3.759-3.769 1.004-1.46 1.766-3.153 2.316-5.179.405-1.46.648-3.602.859-5.345.08-.747.162-1.427.243-1.942.454-3.088.6-6.076.745-9.014.016-.647.049-1.361.081-2.058zm-12.49-9.33c-.421.233-.859.432-1.328.648-.794.365-1.637.747-2.414 1.311a5.604 5.604 0 00-.81.714c-.21.233-.422.482-.6.73l.017.017.016.017.016.016v.017l.016.017v.066l.016.017.033.033.016.016.016.017.016.017.017.016.016.017.016.016.016.017v.017l.016.016h.017l.016.017.016.016.016.017.016.016v.017l.016.017.017.016.016.017.016.017.016.016.017.017.016.016.016.017.016.017h.016l.017.016.016.017.016.016.016.017h.016l.017.017h.016l.016.016h.016l.016.017.017.016.048.033.016.017.017.017.016.016.016.017h.016l.016.017h.017l.016.016h.016l.016.017.016.016h.017l.016.017h.016l.016.017.016.016.033.017.032.016.033.017.032.017.032.016.017.017h.016l.016.016h.016l.016.017h.033l.016.017h.016l.016.016h.017l.016.017h.016l.032.016.033.017.032.016c.843.35 1.96.565 3.289.664 1.717.117 3.71.017 5.2-.381l.048-.017.05-.017.048-.016.048-.017h.017l.048-.016h.016l.049-.017h.016l.049-.017h.016l.032-.016h.017l.032-.017h.016l.032-.016.017-.017h.032l.016-.017.033-.016h.016l.016-.017.016-.016h.017l.032-.017h.016l.032-.017h.017l.032-.016h.016l.033-.017h.016l.032-.016h.017l.032-.017h.016l.032-.017h.017l.032-.016.032-.017.033-.016.032-.017.033-.017.032-.016.033-.017.032-.016.032-.017.033-.017.032-.016h.016l.033-.017h.016l.032-.016h.017l.032-.017h.016l.016-.017.017-.016.032-.033.016-.017.016-.017.017-.016.016-.017.016-.016.016-.017.016-.017.017-.016.016-.017.016-.016.016-.017.016-.017.017-.016.016-.017.016-.016.016-.017.016-.033.017-.017.016-.033.016-.017.016-.033.016-.033.033-.05.016-.033.016-.033.016-.033.017-.017.016-.017.016-.016v-.033l.016-.033v-.034a6.334 6.334 0 00-1.02-1.477c-.665-.697-1.49-1.262-2.285-1.81-.745-.514-1.474-1.012-2.025-1.593a3.862 3.862 0 01-.6.747 5.904 5.904 0 01-.971.68zM25.37 1.793c.437 0 .858.033 1.279.1.437.066.859.182 1.28.315 1.96.647 3.434 1.942 4.6 3.536 1.15 1.577 1.993 3.436 2.674 5.245a33.058 33.058 0 011.49 5.395 46.42 46.42 0 01.713 5.628 28.68 28.68 0 01-.033 4.432c-.113 1.378-.307 2.656-.502 3.884-.162.98-.308 1.943-.437 2.889-.13.946-.227 1.892-.34 2.822a151.224 151.224 0 00-.535 6.507c-.13 2.158-.21 4.3-.292 6.44-.032.715-.032 1.428-.032 2.126-.097-1.279-.081-2.358-.178-3.586-.454-5.993-.875-11.736-1.005-17.862-.048-2.672-2.56-4.332-5.783-5.046a18.822 18.822 0 00-4.147-.398 18.95 18.95 0 00-4.164.498c-3.288.78-5.832 2.49-5.832 5.08 0 1.377.065 3.004.146 4.78.26 5.843.421 13.313-1.62 17.065a60.843 60.843 0 00-.372-4.25c-.114-.863-.308-1.842-.503-2.822-.243-1.178-.486-2.39-.583-3.436-.21-2.208-.389-4.067-.502-5.777-.113-1.693-.146-3.187-.113-4.664.113-4.134 1.182-9.944 2.997-15.289 1.522-4.449 3.564-8.582 6.01-11.155.842-.88 1.7-1.478 2.624-1.86.972-.431 1.993-.597 3.16-.597zm-12.653 50.63c.032.714.065 1.428.113 2.141.146 2.922.276 5.927.746 9.014.08.531.162 1.212.243 1.942.21 1.76.453 3.885.858 5.346.551 2.025 1.312 3.718 2.317 5.179 1.004 1.46 2.252 2.672 3.758 3.768a7.33 7.33 0 002.058 1.046 7.222 7.222 0 002.268.348c.907 0 1.798-.249 2.64-.68.94-.482 1.847-1.195 2.673-2.009 2.333-2.324 3.71-4.814 4.504-7.486.777-2.656.956-5.478.875-8.433-.049-1.644-.146-3.204-.227-4.764a125.05 125.05 0 01-.243-5.578c-.016-.1-.178-.349-.292-.714-.08-.249-.097-.664-.097-.714l-.243-3.286c-.454-6.01-.891-11.77-1.004-17.895-.049-2.407-2.398-3.934-5.427-4.598a18.356 18.356 0 00-3.872-.399L24.3 26.71c1.588-.1 3.224.116 4.779.597a.478.478 0 01.308.581.455.455 0 01-.567.316c-1.49-.449-3.046-.664-4.552-.548l-.033 1.178-.048 1.743c1.555-.1 3.159.183 4.633.963a.472.472 0 01.194.631.45.45 0 01-.615.2c-1.345-.715-2.803-.964-4.245-.847l-.032 1.162-.033 1.394c1.28-.083 2.657.133 4.115.747.227.1.34.365.243.598a.443.443 0 01-.583.249c-1.36-.565-2.624-.764-3.807-.681l-.032 1.013-.081 2.838c1.198-.15 2.43-.116 3.839.05a.476.476 0 01.405.515.47.47 0 01-.502.415c-1.393-.15-2.608-.183-3.775-.034l-.016.3-.032 1.145c.178.332.388.597.631.846.26.25.567.465.924.664.405.216.842.432 1.296.631.81.365 1.668.764 2.495 1.361.324.233.615.482.874.764.179.182.34.382.503.58v-.016l.194.282.016.017.016.017.017.016c1.684 2.49 1.96 6.209 1.652 9.91-.308 3.686-1.183 7.37-1.798 9.828-.081.298-.162.68-.26 1.079-.81 3.436-2.38 10.092-5.394 10.175-.875.034-1.636-.464-2.284-1.211-.616-.73-1.15-1.71-1.604-2.723a47.044 47.044 0 01-.923-2.208 20.872 20.872 0 01-.697-2.158 59.799 59.799 0 01-.745-3.054 85.995 85.995 0 01-.68-3.22l-.098-.449c-.907-4.482-2.349-11.636-.194-15.969v-.016l.016-.017.26-.548.015.033c.065-.116.146-.232.227-.332a7.3 7.3 0 01.632-.78c.697-.73 1.555-1.311 2.365-1.876.794-.547 1.572-1.079 2.106-1.693l.033-1.012.016-.316-.13.033c-1.328.25-2.64.747-4.098 1.61-.211.133-.486.05-.616-.165a.46.46 0 01.178-.631c1.555-.897 2.932-1.444 4.374-1.71.097-.017.21-.033.324-.05l.081-2.805.033-1.046c-.146.017-.276.05-.405.066-1.669.332-3.127 1.212-4.374 2.358a.448.448 0 01-.632-.034.475.475 0 01.032-.647c1.345-1.245 2.965-2.208 4.795-2.573.195-.033.405-.066.6-.1l.032-1.36.033-1.196c-.13.017-.26.033-.373.05-1.96.315-3.79 1.261-5.12 2.457a.447.447 0 01-.631-.034.475.475 0 01.032-.647c1.442-1.311 3.451-2.324 5.573-2.673.178-.033.357-.05.551-.083l.049-1.676.032-1.245c-.437.05-.859.116-1.28.216-1.83.431-3.531 1.36-4.892 2.905a.448.448 0 01-.632.033.475.475 0 01-.032-.648 10.138 10.138 0 015.362-3.17c.502-.116 1.004-.2 1.506-.25l.065-2.09a18.98 18.98 0 00-3.807.48c-3.094.748-5.492 2.308-5.492 4.632 0 1.361.081 2.988.146 4.748.26 5.693.567 12.765-1.312 16.716-.081.05-.664.98-.729 1.112zm11.486-10.06a3.862 3.862 0 01-.6-.747c-.55.581-1.28 1.08-2.025 1.594-.793.548-1.62 1.112-2.284 1.81a6.334 6.334 0 00-1.02 1.477v.033l.016.033v.033l.016.017.016.017.016.016.017.033.016.034.016.033.032.05.017.033.016.033.016.017.016.033.016.016.017.034.016.016.016.017h.016l.016.016.017.017.016.017.016.016.016.017.016.016.017.017.016.017.016.016.016.017.016.016.017.017.016.017.016.016.032.033.017.017.016.017h.016l.032.016h.017l.032.017h.016l.033.016.032.017.032.017.033.016.032.017.033.016.032.017.032.017.033.016.032.017.033.016.032.017h.016l.033.017h.016l.032.016h.016l.033.017h.016l.032.016h.017l.032.017h.016l.033.017h.016l.032.016h.016l.033.017.016.016h.016l.033.017.016.017h.032l.016.016.033.017h.016l.032.016h.017l.032.017h.016l.049.017h.016l.049.016h.016l.048.017.049.016.049.017.048.017.049.016c1.506.399 3.483.515 5.216.382 1.329-.1 2.446-.315 3.289-.664l.032-.017.033-.016.032-.017h.016l.016-.016h.017l.016-.017h.016l.016-.017h.033l.016-.016h.016l.016-.017h.016l.017-.016h.016l.032-.017.033-.017.032-.016.032-.017.033-.016.016-.017.016-.017h.016l.017-.016h.016l.016-.017.016-.016h.016l.017-.017h.016l.016-.017h.016l.016-.016.033-.017.016-.016.016-.017.049-.033.016-.017.016-.016h.016l.017-.017h.016l.016-.017h.016l.016-.016.017-.017.016-.016.016-.017.016-.017.016-.016.017-.017.016-.016.016-.017.016-.017.016-.016.017-.017.016-.016v-.017l.016-.017.016-.016.016-.017.017-.016h.016l.016-.017v-.017l.016-.016.016-.017.017-.016.016-.017.016-.017.016-.016.016-.017.033-.033.016-.017v-.016l.016-.017v-.033l.016-.017v-.016l.017-.017.016-.016.016-.017a5.264 5.264 0 00-.6-.73 4.979 4.979 0 00-.826-.714c-.793-.565-1.636-.946-2.413-1.312-.47-.215-.924-.415-1.329-.647a3.491 3.491 0 01-1.004-.68z" fill="#424242"/></svg>