<svg width="89" height="89" fill="none" xmlns="http://www.w3.org/2000/svg"><path d="M3.026 44.5c0-17.8 14.49-32.271 32.271-32.271 10.485 0 19.794 5.055 25.686 12.833l-.427-4.254C54.219 14.062 45.248 9.843 35.28 9.843 16.18 9.826.64 25.383.64 44.5c0 19.117 15.558 34.674 34.675 34.674.623 0 1.246-.017 1.851-.053l-2.403-2.385C17.213 76.433 3.026 62.104 3.026 44.5z" fill="#424242"/><path d="M35.297 14.026c-16.803 0-30.473 13.67-30.473 30.474 0 15.967 12.353 29.085 28 30.349l-1.371-1.353C17.14 71.592 6.034 59.327 6.034 44.5c0-16.145 13.137-29.263 29.263-29.263 10.752 0 20.15 5.838 25.24 14.507l.909-.16-.072-.784c-5.34-8.828-15.023-14.774-26.077-14.774z" fill="#424242"/><path d="M33.855 17.017v23.852a4.118 4.118 0 00-.622.32l-14.205-4.877-1.602 4.681 14.24 4.895c.552 1.46 1.976 2.528 3.631 2.528 2.154 0 3.916-1.744 3.916-3.898a3.928 3.928 0 00-2.456-3.631V17.035h-2.901v-.018zm46.191 53.969l-1.335-.106-.106.07-5.892-10.626-.837-1.353-1.21-1.869-2.795-.73-2.367-.622-1.745-.463-1.157-.303-.284-.071.836-1.388 2.118-3.56 2.225-3.738 2.403-4.023 4.61-7.725-4.414-.748c-.196-.036-.48-.089-.819-.142-.338-.054-.712-.125-1.139-.196-.925-.16-1.958-.338-2.74-.463a18.03 18.03 0 00-1.105-.178l-.836.142-1.21.214-17.106 3.026-1.086 6.444 15.717-2.012-9.843 12.46-1.994 2.314-13.35 13.243-2.047.962 4.237 4.183 1.157 1.139 1.637 1.62.82.818 1.12-1.121 1.015-.997c-.267-.302-.64-.57-1.14-.8a7.342 7.342 0 00-.96-.357l-.214-.676-.196-.605 12.442-12.834 6.711 1.477 1.282.285 1.869.41 2.51.551.605.143 7.351 11.57.107 2.26 12.638-5.393c.018-.036-2.51-4.112-5.483-.232zM64.72 26.202l.535 5.322 2.35.391.462.09 6.017-.499.534-3.115 3.577-.463-3.987-7.974 2.652-2.136.036-3.81-1.958-1.922.392 2.118-1.87 1.21-10.145 1.478.765 2.724.64 6.586z" fill="#424242"/><path d="M74.796 36.276l-3.382 5.59 5.215 6.497 1.922.32 9.808-5.803-.765-6.693-9.434 4.984-3.364-4.895z" fill="#424242"/></svg>