<svg width="109" height="109" fill="none" xmlns="http://www.w3.org/2000/svg"><path d="M80.202 44.886c-2.136 12.078-4.25 24.024-6.365 36.036H72.79c-7.324 0-14.65 0-21.974-.022-.785 0-1.134.13-1.286 1.024-.72 4.578-5.428 7.848-9.701 6.824-3.052-.72-4.927-3.575-4.382-6.671.065-.349.109-.698.196-1.155h-10.9c.153-.981.284-1.853.436-2.704 1.897-10.79 3.815-21.582 5.712-32.373.13-.74.392-1.002 1.177-1.002 15.696.021 31.414.021 47.11.021.327.022.61.022 1.024.022zm-1.308 1.069h-1.133c-14.89 0-29.757 0-44.647-.022-.85 0-1.155.24-1.286 1.068-1.635 9.44-3.313 18.857-4.992 28.296-.262 1.46-.501 2.943-.763 4.491.392.022.676.044.96.044 2.724 0 5.471-.022 8.196.021.632 0 1.003-.174 1.33-.74 1.199-2.006 2.921-3.358 5.188-3.968 3.488-.938 6.758.675 7.652 3.836.196.676.458.872 1.134.872 7.15-.021 14.3-.021 21.45 0 .72 0 1.004-.196 1.134-.937 1.57-9.09 3.183-18.181 4.796-27.25.327-1.853.633-3.706.981-5.711zM41.398 87.832c3.03-.021 5.995-2.245 6.89-5.145 1.198-3.858-1.44-7.172-5.298-6.67-3.118.392-5.777 2.9-6.388 5.995-.632 3.183 1.57 5.864 4.796 5.82zm40.112-6.91h-6.889c.262-1.57.502-3.03.763-4.47a6198.153 6198.153 0 003.772-21.341c.13-.807.37-1.112 1.264-1.09 2.79.065 5.58.043 8.371.021 1.395-.022 2.464.502 3.314 1.635 2.463 3.292 4.948 6.584 7.477 9.81.654.829 1.548 1.526 2.42 2.159 2.028 1.482 2.594 3.466 2.202 5.82-.24 1.483-.545 2.943-.828 4.404-.393 1.962-1.635 3.008-3.641 3.03-1.112.022-2.245.043-3.357 0-.654-.022-.85.196-.916.828-.523 3.968-4.098 7.15-8.022 7.216-3.903.066-6.475-2.725-6.082-6.627.021-.414.087-.828.152-1.395zm-5.603-1.09c1.788 0 3.467-.022 5.124.022.653.021 1.046-.175 1.395-.763 1.177-1.984 2.9-3.292 5.123-3.924 3.466-.981 6.954.653 7.782 4.098.11.48.37.588.807.567 1.199-.022 2.42 0 3.619-.022 1.373-.022 2.267-.785 2.507-2.136.261-1.352.458-2.726.763-4.077.523-2.224-.066-3.99-1.962-5.297-.741-.524-1.526-1.069-2.071-1.766-2.616-3.336-5.167-6.715-7.696-10.094-.697-.937-1.526-1.373-2.681-1.373-2.464.022-4.949.044-7.412-.022-.829-.022-1.025.327-1.156 1.025-1.068 6.17-2.18 12.317-3.248 18.486a451.32 451.32 0 01-.894 5.276zm11.337 8c3.291 0 6.496-2.66 7.106-5.886.654-3.531-1.853-6.3-5.384-5.93-3.14.306-5.952 2.944-6.518 6.061-.567 3.14 1.59 5.755 4.796 5.755z" fill="#424242"/><path d="M100.476 60.277c-.218-.305-.392-.567-.567-.828 7.173-6.89 9.135-14.803 4.317-23.74-3.51-6.519-11.053-10.007-18.443-8.939-6.954 1.003-13.625 6.148-15.478 14.737-.327-.109-.654-.196-.981-.305.545-5.276 5.559-13.342 14.911-15.347 9.374-2.006 18.639 2.834 22.28 11.685 3.444 8.327.61 17.745-6.039 22.737z" fill="#424242"/><path d="M99.255 34.204c-2.528 2.9-5.035 5.82-7.586 8.698-.349.415-.48.763-.349 1.33.502 2.115-1.199 4.055-3.357 3.663-.85-.153-1.33.065-1.788.654-.24.305-.436.632-.654.937l-1.526-1.526c.11-.13.24-.327.393-.458.763-.632 1.155-1.286.98-2.441-.304-1.962 1.68-3.554 3.62-3.074.632.152 1.024.022 1.482-.37 1.417-1.287 2.878-2.53 4.316-3.772 1.44-1.243 2.9-2.485 4.339-3.75.087.022.109.066.13.11zM89.707 44.93c0-.698-.589-1.286-1.286-1.286-.72 0-1.286.566-1.286 1.286 0 .72.545 1.264 1.286 1.264.697 0 1.286-.567 1.286-1.264zM2.29 63.067c7.956-.218 15.913-.457 23.848-.675.284 1.33.131 1.504-1.068 1.482-7.063-.196-14.104-.37-21.168-.567-.523-.022-1.046-.065-1.591-.087 0-.065 0-.109-.022-.153zm87.308-38.52h-2.572c-.022-.48-.044-.96-.066-1.504-.218-.022-.414-.066-.61-.087-.066 0-.13.021-.174 0-1.069-.458-.328-1.374-.524-2.072-.109-.414-.022-.85.589-.85 1.373 0 2.769-.021 4.142.022.196 0 .545.174.545.305.044.763.109 1.548-.022 2.267-.044.218-.698.328-1.199.546-.022.37-.065.85-.109 1.373zM25.332 66.992v1.133c-7.783-.174-15.522-.327-23.261-.501v-.131c7.739-.153 15.478-.327 23.26-.501zM1.025 76.17c7.608-.175 15.194-.328 22.802-.502.088.697.11 1.177-.697 1.155-7.26-.196-14.519-.37-21.757-.545-.109 0-.218-.022-.348-.022v-.087zm4.338-4.383h1.09l16.982-.392c.175 0 .393-.065.523 0 .24.13.545.305.589.501.13.458-.175.61-.61.589-1.7-.065-3.401-.087-5.102-.13-4.164-.11-8.327-.197-12.513-.306-.327 0-.676-.044-1.003-.065.044-.066.044-.131.044-.197zM8.83 58.751c6.06-.152 12.142-.327 18.29-.48-.066.415-.132.72-.197 1.134l-18.072-.458c-.022-.065-.022-.13-.022-.196zm.827-4.447c6.04-.153 12.078-.327 18.203-.502-.021.371-.043.676-.065 1.112-6.082-.174-12.099-.327-18.138-.48v-.13zm3.99-4.404c4.992-.152 9.963-.305 15.086-.48-.088.437-.153.742-.218 1.134-5.015-.174-9.963-.349-14.912-.501a.31.31 0 01.044-.153zm24.808 32.526c.087-2.747 2.703-4.927 5.428-4.491 1.68.262 2.878 1.788 2.79 3.532-.13 2.485-2.375 4.578-4.86 4.512-1.984-.043-3.423-1.57-3.358-3.553zm4.687-3.466c-1.81 0-3.575 1.722-3.619 3.531-.021 1.352 1.003 2.376 2.377 2.398 1.81.022 3.684-1.787 3.662-3.597.022-1.33-1.024-2.332-2.42-2.332zM79.81 67.515c.305-1.744.61-3.445.894-5.145.283-1.592.588-3.183.828-4.774.087-.524.262-.763.828-.742 1.592.044 3.183-.021 4.775.022 1.504.044 2.703.676 3.553 1.94 1.134 1.679 2.289 3.358 3.4 5.036 1.09 1.657.066 3.728-1.918 3.75-4.033.043-8.066 0-12.077 0-.043.022-.087-.022-.283-.087zm1.286-.96h.96c3.204 0 6.408-.021 9.591 0 .698 0 1.265-.152 1.635-.784.393-.676-.022-1.156-.37-1.679a547.841 547.841 0 01-3.052-4.513c-.61-.893-1.374-1.547-2.507-1.591a68.388 68.388 0 00-4.23 0c-.218 0-.566.327-.632.567-.218.828-.327 1.678-.48 2.507-.283 1.81-.588 3.575-.915 5.493zm8.044 11.336c2.311.044 3.793 1.984 3.292 4.295-.458 2.05-2.267 3.619-4.338 3.793-2.333.196-4.12-1.766-3.728-4.098.349-2.29 2.463-4.033 4.774-3.99zm2.267 3.467c.022-1.505-1.177-2.573-2.703-2.398-1.504.174-2.921 1.46-3.248 2.943-.349 1.57.698 2.92 2.267 2.986 1.81.066 3.663-1.678 3.684-3.531z" fill="#424242"/></svg>