<svg width="197" height="54" fill="none" xmlns="http://www.w3.org/2000/svg"><g clip-path="url(#clip0_124_188)" fill="#fff"><path d="M56.902 25.46v10.747h-2.644c-.023-.347-.093-11.374-.046-16.494 0-1.552.255-3.104 1.043-4.494 2.922-5.282 11.038-5.19 13.194 1.552.278.904.417 1.83.348 2.757-.093 1.46-.51 2.85-1.554 4.03-.974 1.113-1.739 1.6-3.107 2.086-.324.116-1.136.255-1.46.37-.233.07-.441.116-.302.58.162.51.695 1.042.997 1.436 1.553 2.108 5.542 7.598 5.96 8.178h-3.386c-.765-.974-1.53-1.97-2.296-2.966-1.739-2.293-3.478-4.61-5.217-6.903-.278-.37-.51-.88-1.53-.88zm4.892-1.877c.928 0 1.925-.324 2.574-.927 1.53-1.436 2.156-3.197 1.53-5.235-.626-2.062-2.18-3.243-4.197-3.197-2.597.07-4.614 2.131-4.521 4.842.093 3.058 2.295 4.401 4.614 4.517zM118 32.595c.464.556.905 1.088 1.392 1.644-.626.719-1.392 1.182-2.226 1.506-2.992 1.182-5.82.927-8.278-1.228-1.6-1.39-2.574-3.173-2.644-5.374-.046-1.483.024-2.896.812-4.216 1.461-2.456 3.617-3.8 6.492-3.939 3.316-.162 5.751 1.344 7.42 4.1.789 1.298 1.09 2.804.928 4.425h-9.182c-.928 0-1.878-.023-2.806.047-.742.07-1.02.602-.788 1.344.092.277.208.579.394.787 1.832 2.2 4.081 3.15 6.956 1.76.487-.208.928-.509 1.53-.856zm.997-6.047c-.115-.88-.718-1.552-1.414-2.108-1.298-1.066-2.806-1.344-4.406-1.066-1.321.232-2.388.974-3.223 2.016-.394.486-.858 1.297-.208 1.83.208.162 1.739.023 2.04.023 2.528.023 3.687.023 6.214 0 .766 0 1.067-.07.997-.695zm-32.694 2.919h-12.08c-.951 0-1.044 1.32-.534 2.062.789 1.135 1.855 1.97 3.2 2.41 1.554.486 2.945.022 4.29-.696.347-.185.672-.417 1.066-.648.464.556.905 1.088 1.392 1.644-.325.533-.858.765-1.322 1.043-3.084 1.83-7.003 1.46-9.53-1.089-2.157-2.178-2.713-4.818-2.04-7.691.672-2.896 3.547-5.236 6.515-5.49 3.524-.302 6.214 1.088 8.023 4.1.765 1.297 1.206 2.734 1.02 4.355zm-2.945-2.316c-.185-1.251-.742-2.085-1.576-2.757-1.044-.857-2.273-1.182-3.618-1.112-1.855.093-3.176 1.02-4.243 2.456-.301.416-.417.903-.093 1.482.232.046.51.14.812.14 2.55 0 5.124.022 7.675 0 .325 0 .626-.117 1.043-.21zm53.123-15.915h2.318l.024 9.382c.092 1.065.324 1.112.834.903a12.013 12.013 0 013.363-.764c1.252-.093 2.573.116 3.64.834 1.785 1.204 2.829 2.895 2.806 5.096-.024 2.826 0 9.475 0 9.475h-2.621s-.046-5.791-.046-8.131c0-.996-.139-1.97-.58-2.896-.858-1.714-2.411-2.41-4.243-1.83-1.252.394-2.272 1.112-2.898 2.27-.441.834-.255 1.784-.279 2.71v7.877h-2.341l.023-24.926zm23.257 9.752c4.336-.208 7.721 3.707 7.744 7.668.024 4.263-3.385 7.738-7.628 7.784-4.406.047-7.93-3.822-7.954-7.76 0-4.17 3.687-7.923 7.838-7.692zm.116 2.317c-2.597-.232-5.473 1.923-5.496 5.305 0 3.035 2.157 5.42 5.38 5.467 3.292.047 5.333-2.733 5.426-5.444.139-2.85-2.621-5.583-5.31-5.328zM96.946 11.63v2.27c-.672.393-1.299.695-1.878 1.088-1.507 1.02-2.18 2.549-2.388 4.286-.093.741.255.973.997 1.158.324.093 2.573 0 2.573 0v2.248c-.626.023-1.344.092-1.947.092-1.322.047-1.693.58-1.693 1.9 0 3.452.046 11.49.046 11.49h-2.759s.023-7.76.023-11.12c0-.254.023-.532 0-.787-.07-.765-.463-1.205-1.252-1.32-.394-.047-.858-.14-1.298-.163v-2.34h2.411c.093-.532.232-1.181.325-1.783.324-2.456 1.53-4.332 3.594-5.7.95-.648 1.924-1.39 3.246-1.32zm35.941 12.787l-2.296-.602c-.927-1.715-2.875-1.437-3.432-.209-.463.996-.185 1.714.742 2.294.812.51 1.67.764 2.574 1.088 1.044.371 1.948.788 2.713 1.645.533.602.742 1.297.765 2.085.023.695.023 1.413-.139 2.062-.464 1.83-2.388 3.336-4.313 3.428-.626.024-1.275.07-1.878-.069-2.272-.51-3.617-1.97-4.15-4.193-.07-.348-.116-.904-.186-1.344l2.574.765c.046.162-.209 1.737 1.298 2.455 1.299.533 2.528.464 3.664-.44.209-.162.394-.37.533-.579.65-1.02.626-2.015-.324-2.733-.626-.487-1.531-.742-2.249-1.066-.812-.37-1.554-.58-2.366-.973a5.163 5.163 0 01-1.321-1.02c-1.021-1.042-.881-3.266.162-4.494 1.739-2.108 5.194-2.316 7.003.325.255.37.371.903.626 1.575zm48.16 8.178c.464.556.904 1.088 1.391 1.644-.626.719-1.391 1.182-2.226 1.506-2.991 1.182-5.82.927-8.278-1.228-1.6-1.39-2.574-3.173-2.643-5.374-.047-1.483.023-2.896.811-4.216 1.461-2.456 3.618-3.8 6.493-3.939 3.316-.162 5.75 1.344 7.42 4.1.788 1.298 1.09 2.804.927 4.425h-9.182c-.927 0-1.878-.023-2.806.047-.742.07-1.02.602-.788 1.344.093.277.209.579.394.787 1.832 2.2 4.081 3.15 6.956 1.76.511-.208.951-.509 1.531-.856zm.997-6.047c-.116-.88-.719-1.552-1.415-2.108-1.298-1.066-2.805-1.344-4.405-1.066-1.322.232-2.388.974-3.223 2.016-.394.486-.858 1.297-.209 1.83.209.162 1.739.023 2.041.023 2.527.023 3.686.023 6.214 0 .788 0 1.09-.07.997-.695zm13.889-2.131l-2.295-.602c-.928-1.715-2.876-1.437-3.432-.209-.464.996-.186 1.714.742 2.294.811.51 1.669.764 2.574 1.088 1.043.371 1.947.788 2.713 1.645.533.602.742 1.297.765 2.085.023.695.023 1.413-.139 2.062-.464 1.83-2.389 3.336-4.313 3.428-.626.024-1.276.07-1.878-.069-2.273-.51-3.618-1.97-4.151-4.193-.07-.348-.116-.904-.186-1.344l2.574.765c.047.162-.208 1.737 1.299 2.455 1.298.533 2.527.464 3.663-.44.209-.162.395-.37.534-.579.649-1.02.626-2.015-.325-2.733-.626-.487-1.53-.742-2.249-1.066-.812-.37-1.554-.58-2.365-.973a5.168 5.168 0 01-1.322-1.02c-1.02-1.042-.881-3.266.162-4.494 1.739-2.108 5.194-2.316 7.003.325.255.37.371.903.626 1.575zm-95.509 11.745h-2.342s-.023-5.977.024-8.455c.023-.811.116-1.645.301-2.456.487-1.946 1.832-3.174 3.594-4.008.928-.44 2.087-.51 3.154-.602v2.386c-.371.046-.673.046-.951.093-1.229.162-2.18.695-2.806 1.807-.626 1.135-.974 2.316-.974 3.59v7.645zm-57.272-9.266c-.395.532-.951.741-1.577.834-.835.116-1.623-.047-2.365-.394a19.2 19.2 0 01-.997-.463c-.093-.047-.186-.07-.302-.116a8.665 8.665 0 01-.07.37 7.88 7.88 0 01-.695 2.085c-.696 1.46-1.6 2.78-2.76 3.892a8.06 8.06 0 01-1.205.95l-.325.162c.024-.185.047-.324.07-.463l.278-1.668a13.05 13.05 0 00.116-3.012 13.042 13.042 0 00-.533-2.988c-.464-1.552-1.183-2.965-2.226-4.216-.44-.533-.95-.996-1.507-1.437-.093-.07-.186-.115-.279-.185-.023-.023-.046-.023-.092-.046a.252.252 0 01.023.116c.719 1.621 1.229 3.312 1.6 5.05.209.973.37 1.969.464 2.965.092.927.116 1.853.046 2.78-.093 1.39-.348 2.734-.928 4.03a10.2 10.2 0 01-3.06 3.939c-.232.185-.487.301-.72.44-.069.047-.138.047-.208.07 0-.255.023-.487.023-.695.093-1.738.163-3.475.116-5.213a90.46 90.46 0 00-.139-3.544 47.126 47.126 0 00-.37-3.637 35.34 35.34 0 00-.882-4.355 21.847 21.847 0 00-1.553-3.985c-.255-.51-.603-.973-.974-1.413a9.148 9.148 0 01-.673-.903c.093-.024.14.023.209.046.348.208.719.394 1.067.625a13.26 13.26 0 012.202 1.877 5 5 0 01.951 1.436c.046.093.07.162.116.255 0 0 .023.023.046.023 0-.093.023-.185.023-.255a4.885 4.885 0 00-.347-1.992 9.556 9.556 0 00-2.713-3.892c-.487-.417-.997-.81-1.507-1.205a.18.18 0 01-.093-.092c.208-.209.44-.37.626-.603.162-.208.278-.486.44-.74.14.022.302.045.464.069.487.092.95.278 1.415.486.301.14.602.255.927.394.07.023.116.046.232.07-.046-.093-.07-.163-.116-.232a3.847 3.847 0 00-1.067-1.135c-.672-.51-1.437-.834-2.295-.904-.023 0-.023 0-.07-.023a847.17 847.17 0 01-.07-2.015c.186.023.349.023.488.046 2.388.37 4.66 1.158 6.794 2.27.695.37 1.345.834 1.97 1.32 1.183.88 2.273 1.877 3.2 3.012 1.044 1.251 1.855 2.664 2.481 4.17.395.927.766 1.877 1.16 2.803.37.88.811 1.715 1.414 2.456.765.95 1.693 1.668 2.76 2.224.278.139.556.278.834.394.047.023.093.023.14.046a.31.31 0 01.023.116zM0 18.927c.023-.07.07-.162.093-.232.07-.301.208-.556.37-.81.302-.487.673-.95 1.067-1.368a21.03 21.03 0 013.548-3.011c.046-.023.07-.047.116-.07 0 0 .023 0 .07-.023.07.093.162.209.255.301.255.325.51.649.788.973.348.394.742.765 1.229 1.02.07.023.116.046.209.092 0-.07 0-.116-.024-.139-.023-.092-.046-.162-.046-.255-.046-.417.093-.764.44-1.019.186-.116.372-.232.58-.324.163-.093.348-.162.51-.255l.21-.14c-.395-.254-.743-.23-1.068.024-.115.093-.208.185-.324.255a1.868 1.868 0 01-.765.324c-.325.047-.603-.046-.812-.3-.116-.163-.232-.325-.325-.487-.092-.163-.162-.348-.255-.533l.21-.14c.51-.3 1.02-.625 1.46-.995.255-.232.487-.464.672-.765.116-.208.163-.324.186-.486-.418.602-.904 1.019-1.716.857.046-.093.07-.162.093-.232.208-.347.44-.718.672-1.066.673-1.158 1.693-1.922 2.875-2.525.603-.3 1.252-.556 1.925-.648.348-.047.719-.093 1.09-.023.046.139.07.278.116.417a.45.45 0 00.208.324c.07.046.14.116.21.162.115.116.138.162.022.301a4.025 4.025 0 01-.301.348c-.209.208-.44.417-.65.648-.139.163-.3.348-.394.556-.232.464-.208.904.07 1.344.093.162.232.278.348.44.139.185.301.348.44.533.116.162.163.348.209.533.023.116 0 .185-.07.255-.185.208-.44.347-.718.417-.348.092-.696.162-1.02.231-.256.07-.488.14-.72.209-.069.023-.139.07-.255.116a3.02 3.02 0 001.044.324c.812.116 1.577-.07 2.319-.394.556-.232 1.043-.556 1.553-.88.116-.07.255-.162.394-.255.047.07.093.116.116.185.093.162.163.348.255.487.116.185.232.37.371.533.163.185.371.324.603.393.163.047.325.116.487.186.047.51.116.996.163 1.505.07.696.162 1.367.231 2.062l.21 1.9c.022.278.045.556.092.834.023.116-.023.162-.116.185-.44.186-.812.093-1.09-.3-.232-.302-.348-.65-.44-1.02-.093-.417-.163-.834-.255-1.251a3.966 3.966 0 00-.21-.695c-.347-.811-.973-1.205-1.831-1.251-.788-.047-1.507.185-2.156.602-.371.232-.72.51-1.067.765-.255.162-.51.347-.788.486-.51.278-1.044.278-1.577.047-.348-.14-.626-.371-.928-.603-.046-.046-.092-.07-.185-.139.023.093.046.14.07.186.417.695 1.02 1.112 1.831 1.274.557.092 1.067 0 1.577-.232.209-.093.417-.209.626-.301.858-.417 1.67-.278 2.388.324.72.602 1.067 1.39 1.113 2.317.047.857-.208 1.645-.626 2.386a6.415 6.415 0 01-2.48 2.432c-.094.047-.186.093-.302.14l-.023-.024c.046-.116.092-.232.139-.37.139-.348.278-.672.394-1.02.116-.301.162-.625.093-.973-.07-.486-.325-.857-.766-1.112-.487-.255-.997-.324-1.53-.347-.278-.023-.58 0-.881 0 .255-.533.719-.788 1.229-.973-.232 0-.44.023-.65.092-.904.302-1.646.811-2.063 1.692-.325.671-.278 1.343.14 1.992.092.139.161.255.254.394.302.51.186 1.019-.255 1.39-.487.393-1.345.44-1.878.023-.232-.186-.417-.417-.603-.649a1.135 1.135 0 00-.278-.301c0 .093-.023.185-.023.278-.047.232-.07.486-.116.718-.024.093-.07.209-.116.301-.093.162-.255.209-.418.116-.139-.07-.255-.185-.37-.278-.14-.139-.256-.278-.395-.44a.752.752 0 00-.232.417c-.023.139-.023.301-.046.486-.093-.046-.162-.07-.232-.116a5.345 5.345 0 01-.556-.463 3.848 3.848 0 01-1.02-1.969c-.047-.255-.093-.51-.024-.787.046 0 .093-.024.162-.024.789.024 1.577.024 2.366.047.162 0 .347.023.51.046a.923.923 0 01.626.324c.139.14.278.302.417.464.116.115.232.254.371.347a.57.57 0 00.348.116c.139-.232.116-.463 0-.695a1.271 1.271 0 00-.417-.51 4.766 4.766 0 00-2.041-.973c-.44-.092-.858-.139-1.298-.208-.093-.023-.186-.047-.302-.07a.94.94 0 01-.742-.741 2.995 2.995 0 01-.093-.81c.72-.21 1.345-.534 1.67-1.252.209-.486.255-.996.185-1.575-.07.07-.139.116-.162.162-.325.348-.742.51-1.206.556-.765.093-1.507-.023-2.226-.255-.023 0-.07-.023-.092-.023-.07 0-.07-.046-.07-.07zM19.245 54c-.185-.046-.37-.07-.533-.116-1.577-.301-3.014-.88-4.382-1.691a12.053 12.053 0 01-3.015-2.502c-.997-1.135-1.646-2.479-2.11-3.915-.347-1.089-.51-2.2-.533-3.36a18.381 18.381 0 01.301-3.567c.163-.903.348-1.807.51-2.71 0-.046.024-.116.024-.209a2.205 2.205 0 00-.418.348A8.85 8.85 0 007.953 37.9a10.024 10.024 0 00-1.16 3.336 9.554 9.554 0 00-.046 2.57c.186 1.553.742 2.966 1.484 4.333a15.136 15.136 0 002.11 3.035c.418.463.858.903 1.299 1.367a.82.82 0 01.209.37c-.116-.046-.232-.07-.302-.116a19.948 19.948 0 01-1.206-.648 16.21 16.21 0 01-3.362-2.664c-1.298-1.39-2.272-2.966-2.805-4.819-.325-1.135-.418-2.293-.395-3.475.024-1.181.279-2.34.673-3.452.139-.417.255-.834.37-1.25 0-.047.024-.07.024-.14l-.417-.07c-.557-.092-1.09-.254-1.577-.532-.487-.278-.881-.672-1.067-1.204-.046-.116-.07-.255-.116-.417.163.023.302.023.441.046.788.093 1.554.185 2.342.139 1.507-.07 2.922-.417 4.22-1.228a4.779 4.779 0 001.043-.88l.07-.07s0-.023.023-.046c-.162-.023-.348-.07-.51-.093a3.56 3.56 0 01-1.345-.533c-.232-.162-.44-.347-.58-.602-.023-.023-.023-.07-.046-.116.255.023.51.047.742.047 1.716.092 3.038-.603 4.058-1.946.301-.394.556-.811.788-1.251.024-.047.047-.093.093-.163.162.278.255.556.348.834.162.603.232 1.205.278 1.83.07 1.066.046 2.109 0 3.174-.093 1.599-.325 3.174-.765 4.726-.255.927-.51 1.877-.765 2.803-.255 1.043-.44 2.108-.44 3.174-.024 3.544 1.39 6.324 4.358 8.317.696.463 1.484.834 2.25 1.181.324.14.626.278.95.417.07.023.116.093.186.14-.07-.024-.116-.024-.163-.024zm1.137-54c.255.023.51.046.742.07.51.046.997.138 1.484.324.231.092.463.231.695.347.093.047.162.14.255.232-.07.046-.139.07-.185.093-.464.139-.928.3-1.392.44-.742.208-1.414.579-2.11.95-.718.393-1.368.903-2.063 1.366-.14.093-.302.209-.44.302a.944.944 0 01-.557.185c-.348.023-.696.023-1.067.046-.046 0-.07 0-.139-.023l.209-.764c.232-.719.487-1.437.88-2.085.51-.858 1.253-1.344 2.25-1.437l.696-.07c.255.024.486.024.742.024z"/><path d="M19.918 16.401c.07.093.162.186.209.279.278.463.556.926.811 1.39a51.789 51.789 0 012.736 6.277c.557 1.53.881 3.105 1.067 4.726.093.88.139 1.761.093 2.641a10.898 10.898 0 01-.65 3.22c-.44 1.205-.88 2.386-1.321 3.591-.418 1.158-.789 2.317-1.044 3.521-.209.973-.348 1.946-.301 2.942.023.417.07.811.185 1.228.348 1.251 1.09 2.178 2.296 2.688.023 0 .046.023.07.069-.07-.023-.116-.023-.186-.046-.765-.186-1.438-.556-2.11-.996-.557-.371-1.067-.811-1.46-1.367a7.968 7.968 0 01-1.392-3.174 11.958 11.958 0 01-.209-3.15c.07-1.136.278-2.27.557-3.383.37-1.46.765-2.919 1.113-4.378.324-1.32.602-2.664.765-4.031.185-1.436.255-2.873.185-4.309-.046-1.668-.232-3.36-.649-5.027a28.242 28.242 0 00-.58-1.877l-.208-.694c-.023-.047-.023-.093-.023-.14.023.024.023 0 .046 0z"/><path d="M18.666 23.838c.14.787.301 1.506.44 2.247.163.95.14 1.9.093 2.85-.116 2.432-.672 4.771-1.576 7.019-.371.903-.742 1.83-1.09 2.733a10.54 10.54 0 00-.673 2.803c-.162 1.506-.023 2.966.626 4.379.534 1.181 1.368 2.154 2.389 2.942.904.695 1.901 1.228 2.921 1.69.07.024.116.047.209.094-.046.023-.07.023-.093.023-2.087 0-4.034-.533-5.797-1.715-1.576-1.065-2.527-2.571-2.875-4.447-.185-.927-.209-1.854-.139-2.803.093-1.483.394-2.943.765-4.379.302-1.25.626-2.502.835-3.776.232-1.25.37-2.502.37-3.776 0-.44-.022-.904-.138-1.32a5.32 5.32 0 00-.232-.65 1.077 1.077 0 00-.116-.23c-.116-.256-.116-.256.093-.418 1.252-1.042 2.527-2.085 3.78-3.127.046 0 .115-.047.208-.14zM18.48 4.147c.14-.047.279-.116.395-.162 1.159-.417 2.365-.695 3.57-.88a17.682 17.682 0 013.502-.232c1.855.07 3.547.602 5.055 1.714.765.556 1.39 1.25 1.808 2.085.093.185.163.394.255.579l-.023.023c-.046-.023-.116-.046-.162-.07-.65-.3-1.299-.602-1.948-.903a9.832 9.832 0 00-3.037-.81c-.603-.07-1.206-.116-1.81-.163-.973-.046-1.924.093-2.874.301l-1.67.348c-.185.046-.255 0-.278-.186-.07-.579-.417-.926-.928-1.135-.394-.162-.788-.231-1.182-.324-.209-.046-.44-.093-.65-.139-.023 0-.023-.023-.023-.046zM38.7 16.332c-.07-.07-.116-.139-.186-.209-.974-1.088-1.994-1.505-3.06-2.501-1.206-1.112-2.76-2.108-4.244-2.85-1.206-.625-2.968-1.367-4.266-1.76-1.438-.417-2.11-.88-3.594-1.39a.928.928 0 01-.418-.232c-.162-.162-.301-.324-.487-.51.116 0 .209-.023.302-.023a23.815 23.815 0 013.64.116c2.064.232 4.081.695 5.983 1.552 1.46.649 2.782 1.506 3.895 2.664 1.391 1.46 2.203 3.15 2.435 5.143zm-23.373-8.78c.185-.903.51-1.668 1.275-2.2.07-.047.162-.117.255-.163.835-.417 1.832-.232 2.504.463.464.487.72 1.066.789 1.738.116 1.413-.163 2.78-.789 4.054a2.579 2.579 0 01-.556.764l-.116.116c-.418.325-.835.348-1.276.07a.487.487 0 01-.139-.093c-.07-.07-.185-.092-.162-.232.023-.162.07-.278.209-.37a.814.814 0 01.324-.14c.14-.045.186-.115.21-.277l.138-1.9c.047-.672.093-1.343-.023-2.015a3.227 3.227 0 00-.185-.626.686.686 0 00-.603-.417c-.302 0-.534.116-.673.37-.093.186-.162.372-.255.557-.046.139-.139.232-.301.232-.232.023-.418.046-.626.07zM16.556.278c-.047.07-.093.116-.14.185-.231.325-.486.649-.741.973-.534.672-.696 1.46-.603 2.294.046.37.093.718.139 1.089.023.231 0 .44-.116.625-.162.255-.37.51-.556.788-.186-.14-.348-.255-.51-.394-.65-.58-1.09-1.274-1.23-2.131-.162-.973.07-1.854.65-2.665.324-.44.765-.671 1.298-.74.325-.07.673-.07 1.02-.07h.766c0 .023 0 .023.023.046zM8.997 7.714C8.51 6.695 7.72 6 6.655 5.583c.162-.023.324-.023.51-.046.232-.024.464-.07.696-.116.347-.093.533-.301.533-.672 0-.255-.023-.533-.023-.788 0-.07 0-.139-.024-.208.256.208 1.948 2.687 2.203 3.22-.232.139-1.321.695-1.553.741zm.742-4.17c.394 0 .765 0 1.136-.115.37-.116.65-.325.974-.603 0 .116-.023.186-.023.255-.047.487-.07.973.023 1.46.116.555.37.996.858 1.297.116.07.208.162.324.255-.162.115-.324.139-.487.162-.51.07-.997-.023-1.414-.325-.603-.417-.997-.972-1.252-1.667-.046-.209-.116-.44-.14-.719zM3.2 19.297v.093a3.285 3.285 0 01-.928 1.598c-.209.209-.417.232-.672.163a1.005 1.005 0 01-.464-.255c-.371-.394-.742-.788-1.02-1.251-.023-.047-.047-.116-.093-.186.255-.023.51-.07.765 0 .162.047.302.116.394.232.07.093.14.116.255.093.093-.023.21-.047.302-.07l1.252-.347c.07-.047.14-.047.209-.07z"/></g><defs><clipPath id="clip0_124_188"><path fill="#fff" d="M0 0h197v54H0z"/></clipPath></defs></svg>