<svg width="34" height="34" fill="none" xmlns="http://www.w3.org/2000/svg"><g clip-path="url(#clip0_124_185)" fill="#fff"><path d="M17 8.5a5.667 5.667 0 100 11.334A5.667 5.667 0 0017 8.5zm0 8.5a2.833 2.833 0 110-5.667A2.833 2.833 0 0117 17z"/><path d="M17 34a7.468 7.468 0 01-6.107-3.117c-5.4-7.447-8.138-13.046-8.138-16.641a14.245 14.245 0 0128.49 0c0 3.595-2.739 9.194-8.138 16.641A7.468 7.468 0 0117 34zm0-30.91A11.167 11.167 0 005.845 14.245c0 2.847 2.682 8.113 7.55 14.826a4.456 4.456 0 007.21 0c4.868-6.713 7.55-11.979 7.55-14.826A11.168 11.168 0 0017 3.09z"/></g><defs><clipPath id="clip0_124_185"><path fill="#fff" d="M0 0h34v34H0z"/></clipPath></defs></svg>