<svg xmlns="http://www.w3.org/2000/svg" viewBox="0 0 275.6 272"><g fill="#fff"><path d="M137.7 77.5c29.2.7 54.7 11.5 77.9 28.1 9.8 7 18.8 15.4 27.8 23.5 5.1 4.6 5.1 9.1.3 13.8-26.1 26-55.8 45.4-93.1 50.6-20.1 2.8-39.5-1-58.1-8.7-23.1-9.6-43.1-23.8-60.5-41.6-4.7-4.8-5.1-8.9-1-13.1 24.1-24.4 51.6-43.1 85.9-50 6.9-1.4 13.9-1.8 20.8-2.6zm0 90.1c17.7 0 32.2-14.3 32.2-31.9 0-17.6-14.4-32.1-32-32.2-17.6-.1-32.1 14.3-32.1 32-.1 17.8 14.2 32.1 31.9 32.1zm89.4-31c-9.1-11.9-44.3-34.3-53.7-34.4 17.8 23.3 17.1 46.2-1.4 69.1 21.1-7.6 39-19.7 55.1-34.7zM48 136.2c16.9 15.4 34.6 27.7 55.6 35-18.6-23-19.1-46-.2-70.4-21.6 8.2-39 20.2-55.4 35.4z"/><path d="M151.1 130.8c2 7.5-.4 13.5-6.5 16.9-5.4 3-12.6 1.9-17-2.5-4.7-4.8-5.5-12.2-1.9-17.9 3.2-5.2 9.3-7.5 14.8-5.8-3.8 5.1-4.1 8.4-1.1 11.3 3.1 2.8 6.8 2.3 11.7-2z"/></g></svg>