<svg width="24" height="24" fill="none" xmlns="http://www.w3.org/2000/svg"><path d="M21.489 15.469a.563.563 0 11-.977.562l-1.875-3.288a11.436 11.436 0 01-3.657 1.695l.579 3.47a.563.563 0 01-1.11.186l-.574-3.428a12.08 12.08 0 01-3.75 0l-.57 3.428a.562.562 0 11-1.11-.188l.579-3.468a11.439 11.439 0 01-3.657-1.697l-1.878 3.29a.563.563 0 11-.977-.562l1.954-3.42a14.248 14.248 0 01-1.904-1.947.563.563 0 11.876-.707c1.582 1.959 4.35 4.293 8.562 4.293s6.98-2.334 8.562-4.291a.563.563 0 01.876.706 14.25 14.25 0 01-1.904 1.948l1.955 3.418z" fill="#fff"/></svg>