<svg xmlns="http://www.w3.org/2000/svg" viewBox="0 0 275.6 272"><g fill="#fff"><path d="M175.5 84.3c9.8 5 19.3 9.4 28.4 14.5 14.9 8.4 28.1 19.1 39.9 31.3 4.6 4.7 4.6 8.8 0 13.5-26 26-55.7 45.5-93 50.5-9.9 1.3-20.2.1-30.3-.5-3-.2-4.6.3-5.9 2.9-2.3 4.4-4.8 8.7-7.2 13.1-1.6 3.1-3.8 5.6-7.5 3.5-3.3-1.9-3.5-4.4-1.4-8.3 20.5-37.5 40.6-75.3 60.8-112.9l15.9-29.4c1.8-3.3 4.1-5.6 7.9-3.6 3.3 1.7 3.2 4.7 1.6 7.8-2.9 5.8-6 11.7-9.2 17.6zm-3.4 87.6c21-7.6 39-19.6 55-34.8-9.7-11.2-40.3-32.2-54.2-34.6 18.1 23.4 17.7 46.4-.8 69.4zm-12.5-58.2c-1.5 2.8-2.9 5.6-4.6 8.3-2.6 4-4.2 7.8-3.1 13 1.2 5.7-2.7 11.6-8.3 14-8.3 3.5-8.4 12.1-13 18.4 15.2 3.5 30.1-4.2 36.4-17.8 5.7-12.3 2.5-28.4-7.4-35.9zm-2.7-34.2c-4.8 8.9-8.6 16.3-12.7 23.5-.5.9-2.4 1.6-3.6 1.5-13.8-.7-24.5 4.7-31 16.8-6.5 11.9-5.2 23.7 2.7 34.8.9 1.2 1.1 3.8.4 5.1-3.9 7.9-8.3 15.5-12.4 23.4-1.3 2.6-2.7 3.3-5.5 2.1C70.3 176.8 49.3 162 31 143c-3.7-3.9-3.8-8.3 0-12 26.3-26.5 56.2-46.5 94.1-51.3 10-1.3 20.2-.2 31.8-.2zM48.2 136.7c12.7 14.1 47.6 35.7 55.5 34.7-18.8-22.5-19.1-45.5-.6-69.8-21.6 8.3-38.9 20.3-54.9 35.1z"/><path d="M124.5 139.5c-2.3-7.9.6-13.6 9.3-17.4-3.3 6.3-6.1 11.6-9.3 17.4z"/></g></svg>