<svg width="15" height="15" fill="none" xmlns="http://www.w3.org/2000/svg"><g clip-path="url(#clip0_124_181)"><path d="M8.125.625A.625.625 0 018.75 0 6.257 6.257 0 0115 6.25a.625.625 0 01-1.25 0 5.006 5.006 0 00-5-5 .625.625 0 01-.625-.625zM8.75 3.75a2.5 2.5 0 012.5 2.5.625.625 0 101.25 0A3.754 3.754 0 008.75 2.5a.625.625 0 000 1.25zm5.683 6.712a1.937 1.937 0 010 2.736l-.569.656C8.746 18.754-3.71 6.3 1.114 1.166l.72-.625a1.926 1.926 0 012.703.025c.02.02 1.178 1.524 1.178 1.524a1.938 1.938 0 01-.004 2.676l-.724.91a7.988 7.988 0 004.332 4.34l.915-.727a1.937 1.937 0 012.676-.004s1.504 1.158 1.523 1.177zm-.86.909s-1.495-1.151-1.515-1.17a.687.687 0 00-.968 0c-.017.017-1.278 1.021-1.278 1.021a.626.626 0 01-.611.096 9.38 9.38 0 01-5.514-5.506.625.625 0 01.091-.625S4.782 3.927 4.8 3.91a.688.688 0 000-.968c-.019-.019-1.17-1.516-1.17-1.516a.688.688 0 00-.943.025l-.72.625C-1.558 6.316 9.236 16.51 12.952 13l.569-.656a.7.7 0 00.053-.973z" fill="#fff"/></g><defs><clipPath id="clip0_124_181"><path fill="#fff" d="M0 0h15v15H0z"/></clipPath></defs></svg>