<svg width="113" height="113" fill="none" xmlns="http://www.w3.org/2000/svg"><path d="M77.305 45.961l-22.37-16.414a13.07 13.07 0 00-20.806 10.539v32.828a13.056 13.056 0 0020.798 10.54L77.31 67.038a13.066 13.066 0 000-21.078h-.005zm-4.361 15.131L50.573 77.506a5.696 5.696 0 01-9.069-4.592V40.086a5.595 5.595 0 013.122-5.08 5.723 5.723 0 012.589-.631 5.654 5.654 0 013.348 1.118l22.371 16.415a5.693 5.693 0 010 9.184h.01z" fill="#fff"/><circle cx="56.5" cy="56.5" r="53" stroke="#fff" stroke-width="7"/></svg>