<svg width="463" height="463" fill="none" xmlns="http://www.w3.org/2000/svg"><path d="M345.768 404.847c-16.945 16.576-36.299 29.447-58.152 38.614-.556.278-.926-.092-1.297-.463-5.556-8.797-10.556-17.871-14.168-27.594-2.87-7.686-5.463-15.372-7.685-23.243-.186-.556-.278-1.111-.463-1.574-.186-.648-.463-1.389-1.112-1.482-1.018-.092-1.203.834-1.481 1.482-1.852 4.352-3.982 8.612-6.482 12.686-2.686 4.445-5.464 8.797-8.705 12.871-1.666 2.13-2.5 4.353-2.315 7.038.093 2.593.186 5.278-.092 7.964-.093.833 0 2.222-1.667 1.666-1.019-1.574-.37-3.426-1.019-5.093-.833-5.556.371-10.556 3.982-15.186 6.39-8.241 11.112-17.409 15.094-26.947 1.019-2.592 1.204-5 .556-7.685-2.13-8.057-3.797-16.298-5.186-24.539-.463-2.871-1.019-5.186-4.63-5.186-.648 0-1.296-.37-1.389-1.204.556-.833 1.389-1.111 2.315-1.389 3.241-.37 6.112.741 8.982 1.76.463 1.018-.37 1.203-.926 1.574-2.037.463-1.667 1.944-1.481 3.426 1.203 6.852 2.5 13.705 4.167 20.465 2.963 12.408 6.111 24.816 10.371 36.947 3.333 9.353 7.408 18.427 12.686 26.947 2.5 4.074 3.241 4.352 7.408 2.407 10.927-5 21.02-11.482 30.836-18.427-.185-.371-.371-.463-.648-.463-5.927.741-6.019.463-6.39-5.371-1.018-17.501-1.944-35.003-8.797-51.578-.37-.834-.741-1.667-.185-2.5 1.482-.834 2.871 0 4.352 0 6.667 2.129 12.594 5.648 18.983 9.352.556-4.167-.463-7.778-.741-11.297-1.203-14.538-2.87-28.984-4.352-43.429-1.204-12.038-2.407-24.169-3.704-36.207-.185-1.852-.463-3.704.093-5.556.278-.556.648-1.019 1.296-.926 1.204.648 1.389 1.852 1.482 3.148 1.204 11.205 2.222 22.317 3.333 33.522 1.389 14.723 2.964 29.354 4.445 43.985.556 6.019 1.204 12.038 1.852 18.057.278 2.315-.648 3.796-2.5 4.907-3.519 2.223-7.315 4.167-11.019 6.019-3.89 1.945-4.075 2.13-3.427 6.39 1.204 8.426 1.482 16.853 2.13 25.372.185 2.408 1.019 2.963 3.426 3.056 6.112.185 9.909-3.797 13.983-7.315 2.222-1.945 4.26-4.167 7.038-5.464.648-.37 1.203-.37 1.203.463z" fill="#282828"/><path d="M221.962 66.672c1.667.093 2.408-.74 2.778-2.5 3.426-16.668 6.945-33.336 10.464-50.004 1.759-8.52 6.852-11.853 15.279-10.094 26.669 5.556 53.43 11.112 80.099 16.761.741.185 1.482.463 2.222.648-.277.741-.926 1.019-1.666 1.297-4.075.092-7.964-1.297-11.946-2.038-2.037-.37-4.167-.648-6.111-1.296-2.501-.74-4.445-.37-6.112 1.667-.741-.185-1.111-.741-1.389-1.39-.278-1.666-1.574-2.222-3.056-2.5-3.148-.555-6.297-1.11-9.352-1.944-2.593-.648-4.908-.74-7.038 1.204-.463-.185-.926-.463-1.204-.926-.648-1.574-1.944-2.223-3.519-2.593-10.649-2.408-21.298-4.537-32.039-6.667-6.575-1.297-10.279 1.296-11.946 7.778-1.111 4.538-1.759 9.075-2.87 13.612-.556 2.408.185 3.52 2.593 3.89 2.592.37 5.185 1.018 7.778 1.666 1.019.278 2.222.278 2.871 1.39-1.204.462-1.297 2.685-3.241 2.037-2.964-1.575-6.297-1.852-9.446-2.408-1.018-.185-1.759.278-2.037 1.296-1.296 4.816-2.13 9.816-3.056 14.816-.185.926.649 1.667.649 2.5-.093.556-.371.927-.741 1.297-1.111 1.204-1.482 2.685-1.76 4.167-4.444 21.761-9.26 43.522-13.797 65.283-1.574 7.223.926 11.019 8.149 12.779 6.019 1.389 12.13 2.13 17.964 4.167 1.019.741 1.389 1.759 1.111 2.963-.277.556-.555 1.019-1.296.833-1.204-1.111-2.685-1.389-4.167-1.759-4.815-1.111-9.723-2.037-14.538-3.056-8.427-1.852-12.038-7.315-10.371-15.742 3.426-16.76 6.759-33.428 10.463-50.096.556-2.686.834-4.816-2.685-5.093-.278 0-.463-.463-.556-.741 1.019-1.667 2.593-.463 3.519-1.204z" fill="#232323"/><path d="M204.183 459.203c-16.02 0-31.669-2.222-46.856-6.945-73.339-22.594-119.639-71.209-139.085-145.382a112.204 112.204 0 01-3.333-19.168c.648-.833-.463-2.13.926-2.685 1.296.741 1.11 2.037 1.203 3.241 1.667 11.945 4.445 23.705 8.057 35.28.463 1.482 1.11 2.871 1.852 4.26.185.463.37 1.019.37 1.482.926 4.352 2.963 8.334 4.723 12.315 8.426 18.243 18.89 35.096 32.317 50.19 17.038 19.168 36.947 34.447 59.727 45.837 21.391 10.649 44.17 17.038 68.154 19.075 2.778.278 5.463.648 8.241.648 1.945 0 3.704-.185 5.371-1.296 2.222 2.222-.093 2.593-1.667 3.148zm141.585-54.356c-.277-.185-.555-.37-.833-.648 0-1.759 1.482-2.685 2.5-3.704 15.001-15.279 27.595-32.317 37.04-51.578 9.908-20.28 16.39-41.578 18.798-64.079.556-5.464.926-10.927 1.204-16.483 0-.741-.463-1.389-.648-2.13.092-.278.277-.556.555-.741.834-.185 1.945-1.204 2.408.556-.834 24.354-5.186 47.967-14.353 70.561-10.464 25.65-25.65 48.152-45.559 67.505-.371.186-.741.463-1.112.741zM82.877 112.879c26.576-22.687 57.042-37.132 91.396-43.522 7.871-1.481 15.835-2.685 23.984-2.778.74.741 2.037-.185 2.778.741-.556 1.76-2.13 1.297-3.334 1.39-24.632 1.388-48.059 7.592-70.376 18.056-14.353 6.667-27.595 15.094-39.91 25.187-1.02.834-2.038 1.667-3.427 1.852-.555 0-.926-.37-1.111-.926z" fill="#282828"/><path d="M204.183 459.203c1.019-.833 3.148-1.296 1.389-3.333-1.111-.741-1.389-1.945-1.574-3.149-1.945-11.019-3.889-22.131-4.075-33.428-.092-8.705 2.038-17.039 4.26-25.28a278.73 278.73 0 015-17.131c.371-1.204.649-2.593 2.038-3.241.648.093 1.018.463 1.296 1.019.278 2.87-1.111 5.37-1.945 7.963a262.4 262.4 0 00-6.945 28.891c-1.111 6.575-.37 13.242.371 19.724.833 7.316 1.944 14.631 3.241 21.854.463 2.593 1.481 3.796 4.352 3.796 8.427.093 16.668-.463 25.002-1.481 2.685-.371 3.889-1.482 3.797-4.26-.186-3.148-.093-6.389 0-9.538 0-1.389-.278-2.963 1.389-3.796 1.852 1.389.74 3.611 1.481 5.278a7.022 7.022 0 010 2.778c-.555 3.241-.833 6.482.185 9.63.093.371.093.649-.185 1.019-12.964 2.5-26.02 3.334-39.077 2.685z" fill="#282828"/><path d="M441.332 97.23c-2.408 11.853-4.816 23.706-7.316 35.558-2.593 12.131-5.185 24.354-7.778 36.485-1.482 6.945-6.667 10.278-13.705 9.075-4.537-.834-8.89-2.501-13.612-2.315-.371-1.297.648-1.575 1.481-1.945 3.797-.185 7.408 1.111 11.02 1.759 7.871 1.482 11.39-.833 13.056-8.611 4.538-21.484 9.26-42.874 13.52-64.357.926-4.538.926-4.538-3.519-5.464-4.63-1.018-9.26-1.944-13.89-2.87-1.852-.37-3.704-.556-5.185-1.945-.278-1.019.555-1.204 1.203-1.482 4.63-.185 8.983 1.575 13.52 2.315 3.519.556 7.038 1.482 10.649 2.038.741.277.833.926.556 1.759z" fill="#343434"/><path d="M30.002 183.811c2.686-4.074 1.297-7.593-.926-11.39-5.37-9.075-10.278-18.335-15.556-27.502-1.297-2.222-1.204-3.334 1.481-4.167 4.352-1.389 8.705-3.056 12.964-4.63.463.278.834.463.834 1.111-2.871 2.686-6.76 3.056-10.094 4.538-3.333 1.389-3.611 1.574-1.852 4.63 8.982 16.112 18.057 32.224 27.04 48.429 1.296 2.408 2.592 4.908 3.981 7.223 1.019 1.76 2.223 2.13 4.167 1.389 3.426-1.389 7.038-2.593 10.464-3.982 1.204-.463 2.408-1.111 3.797-.74.463.185.74.555.926 1.018-.278 1.482-1.667 1.667-2.778 2.037-4.353 1.852-8.89 3.334-13.242 5.093-2.315.926-3.704.371-4.908-1.759-3.797-6.575-7.408-13.242-11.112-19.909-1.667-2.963-1.574-2.963-4.074-.648-.649.092-.926-.278-1.112-.741zm370.215-9.445c-.463.555-.926 1.111-1.389 1.574-2.13 2.593-1.667 5.093-.278 8.056 3.149 6.667 5.649 13.612 7.594 20.743.277.74.277 1.389-.556 1.759-1.852-.185-1.759-1.759-2.13-2.963-1.852-5.556-3.982-11.02-5.926-16.483-.741-2.037-1.574-2.871-3.889-1.852-6.482 3.056-13.242 4.723-20.465 4.815-.926 0-1.389 1.574-2.5.834-.741-1.575-1.574-3.149.092-4.63.556-.186 1.019 0 1.389.277 3.334 1.852 6.482-.092 9.723-.277.741-.093 1.575-.186 2.315-.463 5.093-1.575 10.094-2.964 12.038-9.168 1.112-3.426 3.427-6.574 4.816-10.001 1.018-2.685 1.111-5.093-1.112-7.222-.185-.741.186-1.297.741-1.667 1.852 0 3.612.833 5.464.833.648.278 1.296.463 1.203 1.389-1.666.834-2.407 2.037-2.778 4.075-.463 3.796-1.574 7.5-4.352 10.371z" fill="#282828"/><path d="M409.385 37.503c11.112 2.315 22.224 4.352 33.243 6.852 4.908 1.112 8.427 6.575 7.501 11.39-1.389 7.686-2.778 15.372-5.001 22.872-.555-1.76-3.148-1.574-3.333-3.611 1.666-.926 2.407-2.408 2.87-4.26l2.5-11.667c1.667-8.056-.926-11.853-8.982-13.427-8.982-1.76-17.964-3.797-26.854-5.649-1.204-.278-2.407-.278-3.333-1.296-.186-1.204 1.111-.741 1.389-1.204z" fill="#343434"/><path d="M409.385 37.503c-.463.278-1.019.463-1.482.74-1.296 1.02-2.778.464-4.167.186-23.057-4.815-46.115-9.723-69.172-14.446-1.297-.277-2.686-.463-3.334-1.759.556-.185 1.019-.463 1.574-.648 11.761 2.407 23.521 4.815 35.188 7.315 13.798 2.686 27.595 5.649 41.393 8.612z" fill="#343434"/><path d="M405.31 206.405c.741-.277.741-1.018.926-1.666 5.278 15.464 9.445 31.113 8.519 47.596-.277 5.741-2.5 10.649-7.871 13.612-.833-.833-1.852.278-2.685-.092-.093-1.204.926-1.76 1.759-2.223 5.001-2.87 6.39-7.593 6.668-12.871.648-11.76-2.038-22.965-5.186-34.17-.648-2.222-1.204-4.444-1.945-6.667-.463-1.111-1.018-2.315-.185-3.519z" fill="#282828"/><path d="M441.887 75.191c1.297.926 4.075.463 3.334 3.426-1.019 6.297-2.223 12.501-3.889 18.613-.093-.556-.186-1.204-.834-1.574-1.018-1.204-.555-2.5-.278-3.797.741-3.334 1.389-6.667 2.13-10 .834-3.797.556-4.26-3.333-5.094-9.909-2.037-19.817-4.074-29.632-6.204-1.389-.278-3.149-.092-3.982-1.76.278-.833.926-1.203 1.574-1.48 1.111-.371 2.13-.093 3.241.092 9.353 1.944 18.705 3.981 28.058 5.834 1.296.37 2.87.37 3.611 1.944z" fill="#343434"/><path d="M28.799 136.863c-.278-.278-.556-.556-.834-.741 14.075-5.371 28.058-10.742 42.133-16.02 4.63-1.759 9.168-3.519 12.686-7.223.278.278.556.463.834.741.185.185.37.463.37.741 0 .926.093 1.852-.648 2.593-5.186 2.593-10.834 4.352-16.298 6.389-11.39 4.352-22.78 8.797-34.262 13.057-1.203.463-2.5 1.481-3.981.463zm214.369 319.655c0-.185-.093-.37-.093-.556.093-.555.463-1.018.926-1.296 1.852-1.111 3.982-1.111 6.019-1.482 11.297-2.315 22.224-6.019 33.058-10.093 1.204-.463 2.408-1.296 3.797-.556l.833.834c-14.26 6.482-29.076 10.927-44.54 13.149zM30.002 183.811c.278.278.463.556.741.833.648 1.204.093 2.408-.37 3.427-5.371 12.964-9.538 26.298-11.946 40.095-.185.926-.185 2.038-1.11 2.686-1.205.278-.649-1.019-1.112-1.389 2.593-15.835 7.13-31.021 13.797-45.652zM13.52 254.65c.185-6.297.463-12.501 1.851-18.705.649.185 1.112.648 1.297 1.204.74 2.222 0 4.352-.278 6.574-1.111 8.982-.37 18.057-.74 27.039 0 1.112 0 2.223-.186 3.241-.278 1.019-.556 1.945-1.482 2.593-.555-1.574-.648-3.148-.462-4.815.37-5.649.463-11.39 0-17.131z" fill="#282828"/><path d="M201.035 67.32c-.926-.463-2.038.185-2.778-.74a170.098 170.098 0 0123.798 0c-1.019 1.018-2.408.185-3.426.74-3.149 1.76-6.575.741-9.909.834-2.592.092-5.37.74-7.685-.834z" fill="#232323"/><path d="M13.982 276.596c.186-.741 0-1.574.649-2.13 1.666 3.334 2.5 6.76.833 10.464-.37.926.185 1.945-.648 2.778-.278-3.704-1.111-7.315-.834-11.112z" fill="#24232A"/><path d="M13.52 254.65a53.743 53.743 0 010 17.224 178.09 178.09 0 010-17.224z" fill="#2D2D2D"/><path d="M16.112 236.778c-.277-.278-.463-.555-.74-.833-.278-2.223.555-4.26.833-6.482.278.555.463 1.018.74 1.574 1.112 2.13.649 3.982-.833 5.741z" fill="#282828"/><path d="M405.31 206.405c2.686 9.168 5.464 18.243 7.038 27.688 1.111 6.389 1.574 12.871.833 19.353-.648 5.834-3.889 9.816-9.075 12.409-1.481 1.852-3.796 1.852-5.741 2.778-6.297 1.666-12.686 2.5-19.168 2.778-17.316.648-34.447-1.204-51.578-3.334-2.871-.37-3.612-.833-5.186-3.611 1.204 2.963 1.297 5.833.741 8.797 1.019 10.649 1.945 21.298 2.963 31.854 1.389 13.983 2.871 28.058 4.26 42.04.741 7.038 1.389 13.983 2.13 21.021.092.926 0 1.944 0 3.241-6.76-3.89-13.335-7.779-20.465-10.279-13.89-4.445-27.873-8.982-42.226-11.668-3.889-.74-4.259-1.389-3.333-5.093 3.796-14.075 7.963-27.965 12.038-41.947 2.037-7.038 3.982-14.168 6.111-21.298 1.482-4.538 4.445-8.334 6.76-12.409 6.482-11.112 13.242-22.131 19.817-33.151.648-1.111 1.203-2.315 2.407-3.148 2.778-1.574 5.649-.37 8.427.093 13.982 2.222 28.15 3.796 42.225 5.278 5.927.648 11.946 1.296 17.872 2.13-3.241-.278-4.167-1.019-4.63-4.723-.555-5.186-1.389-10.279-2.13-15.372-1.203-8.426-2.315-16.76-3.611-25.187-.278-2.037-.185-3.889.741-5.648 7.593.463 14.631-1.575 21.205-5.001 2.778-1.389 3.519-.648 4.352 1.76 2.315 7.037 4.816 13.89 7.223 20.649z" fill="#966536"/><path d="M261.039 347.343c-3.148.185-6.111-1.575-9.26-1.297-4.722 1.667-9.352-.463-13.982-.741-6.39-.37-12.686-1.111-19.076-1.018-7.778.092-8.334-1.204-5.093-8.149 2.5-5.371 5.186-10.742 7.501-16.205 4.445-8.797 8.334-17.779 12.316-26.669 5.463-11.945 10.834-23.891 16.297-35.836 2.13-4.63 4.445-9.075 6.39-13.797 0-.093-.093-.093-.186.277-2.778 6.853-2.778 6.853-9.074 2.778-13.983-9.167-27.688-18.89-39.541-30.928-3.426-3.519-6.389-7.408-8.241-11.853-2.685-6.297-.185-11.945 2.871-17.223 5-8.612 11.389-16.205 18.427-23.243 5.741-5.649 11.112-11.668 17.316-16.853 2.037-1.667 3.426-1.76 5.371.185 4.352 4.352 9.63 7.315 15.372 9.445 3.426 1.297 3.796 2.315 1.574 5.371-6.575 9.26-12.964 18.613-19.724 27.78-1.111 1.482-2.13 3.056-3.241 4.63-3.241 4.26-3.241 4.26-7.964 1.852 18.613 9.816 37.04 19.816 55.56 29.725 1.575.833 3.149 1.666 3.612 3.611.741 5.834-.371 11.668-.648 17.409-.463 9.538-.834 19.075-1.76 28.613-.092 1.297-.092 2.593-.463 3.889-6.204 21.761-12.686 43.43-18.705 65.191-1.111 4.537-1.852 5-5.649 3.056z" fill="#966536"/><path d="M405.403 267.244c-1.204 40.651-13.705 77.506-37.503 110.471-6.853 9.538-14.816 18.057-22.965 26.391-4.167 3.612-8.427 7.038-12.501 10.835-3.611 3.333-8.149 2.129-12.223 3.055-1.111.278-1.019-.926-1.019-1.666-.37-10.464-.926-20.928-2.593-31.299-.277-1.574.371-2.13 1.667-2.686 4.63-1.944 9.075-4.444 13.52-6.945 1.944-1.111 2.685-2.407 2.407-4.722-2.778-26.299-5.37-52.597-8.056-78.895-.648-6.482-1.389-12.872-2.13-19.354-1.481-4.074-.926-5.093 3.149-4.63 10.464 1.297 20.927 2.593 31.391 3.056 8.612.37 17.316.648 26.021-.278 5-.555 10.001-1.018 14.816-2.685 2.037 0 3.889-1.852 6.019-.648z" fill="#FEFEFE"/><path d="M241.779 437.998c-1.204 4.723-.556 9.63-.649 14.446-.092 2.315-.37 3.426-3.055 3.796-9.723 1.389-19.446 1.852-29.262 1.76-1.296 0-1.852-.463-2.13-1.852-1.667-9.26-2.963-18.613-4.074-27.966-1.111-8.982-.371-17.779 1.667-26.483 2.222-9.168 4.537-18.335 7.685-27.225-.74-1.018-.37-2.129 0-3.148 2.593-7.686 5.093-15.464 7.779-23.15 1.481-3.982 1.759-4.26 6.019-4.074 7.963.463 15.927.926 23.798 2.685.278.185.556.37.833.463 5.093.833 4.908.833 5.927 6.297 1.574 8.241 3.426 16.575 5.371 24.724.555 2.408.463 4.537-.463 6.76-4.26 10.464-9.353 20.372-16.391 29.169-3.241 4.074-3.241 8.704-3.055 13.427.463 2.5.185 5 .74 7.408.463 1.018.278 2.13-.74 2.963zm66.209-77.414c4.074 8.057 6.111 16.668 7.315 25.558 1.482 10.186 2.5 20.465 2.593 30.836 0 2.407 1.018 2.963 3.056 2.5 1.666-.37 3.333-.741 5.463-.37-1.574 2.592-4.074 3.704-6.204 5.093-9.168 6.111-18.52 11.852-28.614 16.39-2.778 1.204-3.981.278-5.37-1.76-4.445-6.759-7.779-13.982-11.02-21.39-3.519-7.964-6.204-16.298-8.426-24.632-3.704-13.982-7.131-28.058-9.538-42.318-.371-2.315.741-2.408 2.407-2.222 11.483.833 22.41 3.981 33.429 6.945 3.797 1.018 7.501 2.315 11.205 3.611 1.296.278 2.778.556 3.704 1.759z" fill="#893717"/><path d="M286.875 442.628a230.32 230.32 0 01-43.059 12.779c-1.574.555-1.667-.463-1.574-1.574.092-2.593-.278-5.186.185-7.779v-2.685c-.278-3.426-.648-6.945.185-10.371.648-3.89.648-7.871.648-11.853 0-1.76.556-3.149 1.574-4.538 6.39-8.519 12.038-17.408 16.205-27.224.371-.833.278-2.13 1.76-2.037 1.389.092 1.667 1.204 2.037 2.315 2.315 8.612 5 17.131 8.241 25.465 3.519 9.075 7.594 17.872 13.335 25.743.37.463.833 1.018.463 1.759z" fill="#FBFEFE"/><path d="M249.742 346.694c-8.149-.555-16.297-2.037-24.539-2.129-2.222 0-3.333.555-3.982 2.778-2.963 9.074-6.019 18.057-9.074 27.039-.278-.278-.556-.648-.834-.926-.833-1.204-.092-2.315.185-3.426 1.019-4.167 2.408-8.242 3.89-12.224 1.018-2.685.555-4.722-1.204-6.945-1.852-2.5-4.352-4.722-4.538-8.148 2.778-7.038 6.112-13.89 9.168-20.835.555-1.297 1.018-2.686 2.5-3.334.556.093 1.019.278.741.926-2.963 6.482-5.834 12.964-8.797 19.539-1.667 3.704-1.667 3.889 2.222 3.889 7.871.092 15.742.741 23.613 1.389 4.26.37 8.334 1.759 12.594 1.574-.371.926-1.204.741-1.945.833zm58.246 13.89c-12.224-4.167-24.447-7.871-37.133-10.278-3.797-.741-7.501-1.482-11.205-2.223.556-.092 1.112-.185 1.389-.74 3.704 1.203 4.445-1.019 5.279-3.982 5.926-20.928 11.945-41.855 17.964-62.783.093-.278.37-.556.463-.833.556.277.185 1.018.648 1.389-4.722 16.668-9.538 33.428-14.26 50.096-1.297 4.63-2.5 9.353-4.075 13.89-.833 2.5-.092 3.149 2.315 3.612 13.798 2.5 27.225 6.111 40.281 11.297.834.278 1.575.833 2.315 1.204-1.203-.186-2.592-.463-3.981-.649zm92.137-92.044c-6.39 2.315-13.057 2.871-19.724 3.148-17.316.834-34.447-.648-51.578-3.055-4.723-.649-4.723-.649-4.723 3.889l-.833.833c-1.019-4.352-1.297-8.704-1.297-13.334.648.278.926.278 1.019.463 1.204 1.944-.926 5 1.944 6.111 2.13.834 4.538.926 6.76 1.204 13.335 1.389 26.669 2.778 40.189 2.778 9.074 0 17.964-.833 26.854-2.685.74-.371 1.481-.648 1.389.648zm-157.42 164.365c-.093 3.426-.093 6.945-.186 10.371-1.111-1.667-.185-3.611-.648-5.371 0-3.518.093-6.945.093-10.463 1.111 1.759 0 3.796.741 5.463z" fill="#282828"/><path d="M221.407 318.822c-3.334 7.13-6.575 14.168-9.909 21.298-.37.926-.926 1.759-1.389 2.593-1.759 2.222-1.574 4.352.186 6.574.555.648.833 1.574 1.389 2.223 2.685 2.778 2.685 5.556.37 8.519-.37.555-.741 1.204-.741 1.852-.463 8.426-5.185 15.742-6.204 23.983-.37 2.778-1.759 5.186-2.685 7.779-3.89 11.019-4.445 22.316-3.241 33.799.185 2.129-.093 3.704-1.945 5.278-2.222 1.944-1.945 4.445.648 5.834 1.667.926 2.315 2.222 2.871 3.796.833 2.778 1.018 5.649 1.389 8.519.37 3.241-.648 4.26-3.982 4.723-5.371.741-10.464-.926-15.649-1.574-9.538-1.297-18.983-3.056-27.966-6.204-6.667-2.408-13.612-4.353-19.909-7.871-2.129-1.204-4.167-2.501-4.907-5.093-.649-2.13-2.408-2.501-4.26-2.223-7.315.926-12.501-2.593-17.594-7.315-3.611-3.241-4.074-6.853-4.074-11.205.463-27.039-19.817-48.522-45.56-52.226-3.148-.463-6.39-.278-9.63-.185-2.593 0-4.445-.926-5.834-3.056-2.593-3.889-5.185-7.686-6.575-12.131-.648-2.222-2.222-4.074-3.24-6.111-1.667-3.704-.649-5.464 3.333-5.742 1.297-.092 2.685 0 3.982 0h149.271c2.13 0 4.26.278 6.204-.648 2.223-1.018 4.167-2.5 3.797-5.185-.37-2.686-2.593-3.241-4.908-3.427-4.537-.463-5-.74-5.926-5.093-1.389-6.574-2.408-13.241-2.778-20.001-.278-5.464-2.13-10.557-3.149-15.835-.74-3.982-1.481-7.963-.833-12.13.556-3.612-3.241-6.668-6.852-5.464a12.7 12.7 0 01-4.538.834h-30.095c-3.982 0-4.537-.556-5.185-4.445-.278-1.852-.649-3.889-.093-5.556 1.204-3.426.463-6.575-.463-9.723-1.111-3.797-1.389-7.779-2.315-11.668-1.204-5.371-5.371-6.111-9.353-7.593-.463-.185-1.111-.093-1.666-.093h-69.82c-3.52 0-5.372 1.667-6.668 4.723-2.87 6.76-3.056 13.983-3.982 21.02-.833 6.667-1.852 13.335-3.426 19.909-.185.834-.37 1.852-1.204 2.315-2.685 1.482-2.778 3.982-2.685 6.575.092 6.945 1.018 13.89 1.018 20.835 0 1.574-.092 2.963-.463 4.537-1.11 3.797-1.944 7.686-1.389 11.76.278 1.76-.185 3.149-1.852 3.797-1.852.741-3.426-.185-4.167-1.759-2.5-5.001-4.907-10.094-5.556-15.835-.74-6.575-.648-13.242-.648-19.816 0-2.038-.185-3.982-1.852-5.464-1.018-.926-1.296-2.222-1.296-3.611 0-2.13-.093-4.167-1.482-6.019-.74-.926-.463-1.852-.185-2.871.555-1.574.833-3.241.74-4.908-.37-11.482 1.39-22.872 3.334-34.076 1.019-6.019 3.797-11.761 5-17.78 1.297-6.574 2.964-13.056 5.279-19.353.463-1.296.833-2.685 2.315-2.963 1.574-.278 2.222 1.018 3.148 2.037 3.704 4.074 5.742 9.075 8.056 13.983 2.686 5.556 4.26 6.019 9.816 3.241 2.315-1.112 4.538-2.223 7.223-1.76 1.574.278 2.685-.741 3.89-1.574 2.314-1.667 4.63-2.315 7.407-.833 2.593 1.389 5.649.926 8.427.463 1.76-.278 2.407-1.667 2.963-3.241 1.296-3.982 1.944-4.445 6.204-4.445 5.278-.093 10.649-.185 15.927.092 3.519.186 6.112-1.574 8.89-3.055 1.759-.926.648-1.945-.185-2.871-1.852-2.13-4.352-3.797-5.649-6.389-.37-1.667.926-2.038 2.037-2.501 3.241-1.389 6.575-2.592 9.909-3.704 2.129-.74 3.889-.092 5.463 1.297 6.667 5.648 13.427 11.019 20.094 16.575.926.741 1.76 1.574 3.149 2.13-3.241-7.778-6.853-15.186-9.909-22.78-.648-1.574-1.389-3.148.556-4.352a2459.547 2459.547 0 0133.336-12.779c2.408-.926 2.685-1.944 1.759-4.074-8.334-20.372-16.76-40.744-25.002-61.209-.926-2.222-2.037-2.037-3.889-1.389a6424.4 6424.4 0 01-54.17 20.28c-2.501.926-5.094 2.87-8.057 1.574v-.648c12.13-9.538 24.632-18.428 38.522-25.373 23.427-11.667 48.152-18.612 74.265-20.372 1.574-.092 3.056-.37 4.537-.555h17.502c5.185.926 5.278.926 4.074 6.482-3.426 16.483-6.852 32.965-10.371 49.448-1.76 8.242 1.389 13.335 9.445 15.094 5.649 1.204 11.39 2.5 17.131 3.611 1.389.278 1.945.741 1.574 2.038-7.223 6.574-14.168 13.519-21.02 20.557-6.575 6.852-12.686 14.075-17.409 22.316-2.87 5.001-5.185 10.279-3.056 16.298 1.112 3.056 2.871 5.649 4.908 8.149 9.538 11.667 21.576 20.372 33.707 28.891 4.352 3.056 8.611 6.112 13.241 8.704 2.13 1.204 1.76 2.686.926 4.445-4.259 9.353-8.519 18.613-12.778 27.965-5.001 11.02-10.094 22.039-15.094 33.059-.648 1.481-1.204 3.148-2.5 4.352zm220.48-243.631c-11.667-2.685-23.335-5.185-35.095-7.315-4.723.833-9.075-1.111-13.52-2.037-15.742-3.149-31.484-6.575-47.133-9.909-6.297-1.666-6.204-1.666-7.13-8.056-.556-3.704-1.204-7.408-2.593-10.927-2.13-5.37-6.204-7.593-12.038-6.945-6.297.741-11.76 3.52-17.316 6.205-1.112.555-2.223 1.481-3.334.463-.926-.834-.463-2.13-.185-3.149 1.204-4.167 1.018-8.704 3.426-12.593.37-3.241 2.037-3.704 5.093-2.964 6.389 1.575 12.871 2.686 19.261 3.982 18.983 4.075 37.966 8.056 56.856 12.13 6.575 1.39 13.149 2.686 19.724 3.983 10.093 2.222 20.187 4.352 30.188 6.574 1.666.37 3.518.648 5.093 1.39 3.889 1.666 6.111 5.74 5.37 10-1.018 5.834-2.5 11.575-3.518 17.409-.371 2.407-1.852 1.667-3.149 1.76z" fill="#FEFEFE"/><path d="M240.482 140.659c-6.852-1.389-13.797-2.592-20.65-4.259-4.907-1.204-7.685-6.204-6.667-11.02 4.908-23.242 9.816-46.392 14.724-69.635.277-1.204.277-2.5 2.037-2.407 3.889-.649 5.185.277 5.556 3.889.092.74 0 1.574.278 2.315.833 5.463 2.778 10.278 7.222 13.797 4.816 3.241 10.094 2.686 15.372 1.945 3.148-.37 6.204-1.39 9.167-2.778.926-.463 2.038-.834 2.778.092.741 1.02-.277 1.852-.926 2.5-4.815 5.001-10.093 9.538-15.186 14.168-1.482 1.39-4.26 2.5-3.797 4.445.463 1.852 3.519 1.019 5.371 1.667.371.185.834.093 1.297.093 2.407-.093 4.815.74 7.222.74 2.593 0 3.612 1.575 3.704 3.982.186 4.352-1.296 8.519-2.129 12.686-2.038 9.353-3.982 18.706-5.927 28.058-.833 4.075-2.593 4.908-6.297 3.519-1.666-.648-2.592-1.759-2.222-3.519.556-2.778-.37-5.185-1.759-7.5-1.945-1.945-3.241-3.982-3.334-6.853 0-1.481-.741-2.963-1.574-4.259-1.482-2.408-3.612-2.408-5.001.092-1.203 2.223-.926 4.723-.555 7.13.463 2.686.926 5.371 1.667 8.057.185 1.018.648 2.037-.371 3.055zm7.686-106.027c-4.167-.926-8.334-1.944-12.594-2.778-1.944-.37-2.5-1.018-2.037-3.055 1.297-5.279 2.223-10.557 3.426-15.835 1.297-5.741 5.834-8.982 11.483-7.871 11.853 2.315 23.705 5 35.558 7.315 2.315.463 1.574 1.945 1.667 3.241a9.173 9.173 0 010 3.89c-1.482 6.019-2.5 12.038-3.797 18.057-.74 3.426-1.852 4.444-4.907 3.796-8.797-1.852-17.687-3.519-26.484-5.556-.926-.185-1.852-.37-2.315-1.204z" fill="#FEFEFE"/><path d="M249.927 132.788c2.315 2.315 2.686 5.186 2.13 8.242-.741 3.611 2.223 2.315 3.704 2.963 1.667.741 2.5.278 2.871-1.667 2.593-12.871 5.371-25.65 8.149-38.429.092-.555.185-1.111.185-1.667.185-5 .185-5-4.815-5.37-1.852-.093-3.704-.37-5.556-.556.185-1.574 1.481-1.204 2.407-1.482h3.334c5.648 0 6.389.741 6.945 6.39.185 1.852 0 3.704.092 5.648 0 .741-.185 1.76.649 2.038.926.277 1.296-.649 1.759-1.204 5.741-6.39 10.927-13.242 15.279-20.65.648-1.019 1.019-2.222 2.222-2.778.741-.185 1.297 0 1.945.278 1.482.926 2.5 2.222 2.778 3.982-.093 1.018-.833 1.759-.833 2.778-3.427 17.594-7.408 35.188-11.02 52.689-.926 4.352-.926 4.352 3.612 5.463 2.778.649 5.556 1.204 8.426 1.76 1.297.278 2.686.37 3.519 1.574.185.556-.093 1.019-.556 1.389-2.963.741-5.648-.463-8.426-1.111-7.964-1.76-16.02-3.149-23.984-5.001-.648-.185-1.296-.277-1.944-.37-1.111-.093-2.408 0-2.871 1.111-.555 1.204.741 1.667 1.482 2.223 4.352 3.704 4.445 4.63 1.296 9.26-7.871 11.482-16.205 22.501-24.168 33.891-2.315 3.334-2.223 3.426 1.203 5.371 15.372 8.334 30.744 16.761 46.115 25.095.741.37 1.574.833 2.037 1.666.093.278.186.649.186 1.019-.093.37-.278.648-.556.833-10.371-5.648-20.65-11.297-31.021-16.945-8.89-4.816-17.872-9.631-26.761-14.446-1.019-.556-2.223-.833-2.686-2.222 1.667-.741 2.871.555 3.889 1.296 2.038 1.296 3.149 1.019 4.538-1.019 6.389-9.26 12.964-18.334 19.538-27.502 1.76-2.407 3.427-4.908 5.186-7.223 1.019-1.296 1.296-2.037-.741-2.778-6.76-2.407-12.871-5.833-17.872-11.019-.926-.926-1.574-.926-2.5-.093-13.612 12.594-27.409 25.188-36.762 41.393-5.371 9.352-5.186 13.982 1.945 23.057 7.685 9.816 17.594 17.316 27.502 24.539 6.019 4.445 12.408 8.427 18.612 12.594 1.667 1.203 2.686 1.296 3.612-1.019.833-2.037 1.481-4.352 2.963-6.112 1.204.649.648 1.389.37 2.038-11.667 25.465-23.242 50.93-34.91 76.395-.092.185-.278.37-.463.463-.185-.278-.463-.556-.648-.741 4.908-10.927 9.816-21.946 14.723-32.873 5.001-11.02 10.001-22.039 15.187-33.058.926-1.945.463-2.778-1.204-3.797-13.705-8.612-27.132-17.779-38.892-28.984-4.074-3.889-7.871-7.963-10.927-12.779-3.241-5.185-3.519-10.463-1.111-16.112 3.334-7.686 8.334-14.26 13.705-20.557 7.963-9.168 16.668-17.687 25.557-25.836.556-.555 1.112-1.111 1.945-.926.278-.185.556-.37.833-.648.278-.185.556-.185.834 0 2.315 3.704 6.204 5.464 9.723 8.334 1.111-2.5 2.87-4.167 5.834-5.093-2.408-.463-4.26-.833-6.205-1.204-1.389-.185-2.5-.926-1.944-2.407 1.111-3.241.185-6.297-.648-9.353.277-.37.648-.648 1.203-.741z" fill="#282828"/><path d="M286.412 16.39c.555-2.593 2.037-3.148 4.63-2.5 4.352 1.111 8.797 1.945 13.242 2.685 2.037.37 2.592 1.204 2.037 3.056.092 5.371-2.037 10.279-2.686 15.464-.37 2.778-1.666 4.63-4.167 5.927-.926.463-1.944.833-2.87.555-4.26-1.11-8.519-.277-12.779.278-2.037.185-3.056-.463-2.593-2.5 1.667-7.5 2.963-15.001 4.815-22.41-.092-.277.186-.462.371-.555z" fill="#966536"/><path d="M286.412 16.39c-.926 7.316-2.778 14.446-4.352 21.576-.649 2.778-.186 3.519 2.778 2.963 3.889-.74 7.778-1.018 11.76-.092 2.5.648 5.556-2.13 6.204-5.093 1.204-5.371 2.315-10.742 3.519-16.113.278.463.463 1.019.741 1.482-1.019 5.185-2.038 10.278-3.056 15.834 3.704-1.759 7.037-3.518 10.556-5 4.26-1.852 8.705-3.148 13.427-2.778 3.982.278 6.76 2.222 8.612 5.741 2.408 4.723 3.519 9.816 3.426 15.001-.092 3.427 1.111 4.445 4.075 4.63.74.093 1.481.463 2.222.649-.833 1.018-1.945.926-3.056.926-2.685-.278-3.148 1.666-3.796 3.611-2.593 7.5-7.316 11.112-14.909 11.575-2.037-.278-3.889.093-5.649 1.204-2.87.555-5.556-1.39-8.519-.741-.463.185-.833.37-1.389.37-1.944-.277-3.148-1.759-4.63-2.87-2.222-1.574-4.352-3.334-7.315-2.87-.463.184-.926.277-1.389.462-4.538 1.482-9.168 2.315-13.89 1.482-2.037-.37-3.612.555-5.093 1.76-1.297 1.018-2.223 2.5-3.982 2.685-1.296-.278-1.667-1.112-1.759-2.315.833-2.593 4.074-2.315 5.741-4.908-6.76-1.297-13.242-1.76-19.817-1.204-.833-.278-1.759-.463-2.222-1.482.463-1.11 1.482-1.203 2.408-1.296 4.352-.093 8.704 0 13.056 0 5.278.37 5.371.37 4.352-5-.463-2.593-.926-5.186-.74-7.871.092-2.223-.741-3.704-2.778-4.63-5.834-2.686-11.761-4.908-18.057-6.112-1.019-.185-1.945-.278-2.964-.37-8.148-.37-12.223 3.426-12.686 11.667-.185 3.241.463 6.575-.463 9.816-.278.555-.648.833-1.296 1.018-.185-.555-.556-1.018-.463-1.574.648-3.796-1.482-5-4.723-5.278l.834-.833c2.037-.741 2.963-2.038 3.148-4.353a21.135 21.135 0 012.408-7.778c1.759-3.334 4.63-4.815 7.963-4.352 1.76.833 2.223-1.852 3.797-1.39 9.538 1.945 19.168 3.89 28.706 6.02 2.407.555 3.426.092 3.982-2.5 1.481-7.501 3.148-15.002 4.815-22.502-.093.278.185.555.463.833z" fill="#282828"/><path d="M244.279 36.021c-6.204 1.482-9.075 5-9.631 13.335-.185 3.056-1.111 3.889-3.889 3.148-1.018-.555-2.13-.74-1.667-2.5 1.204-5 2.315-10 3.241-15.001.371-1.852 1.204-2.315 2.964-1.852 2.87.648 5.741 1.296 8.611 1.852.834.092.834.463.371 1.018z" fill="#966536"/><path d="M249.927 132.788c-.185.278-.37.463-.555.741-2.686-.648-3.982-2.5-4.26-5.093-.092-1.018-.185-1.944-.555-2.87-.371-1.112-.649-2.593-2.223-2.408-1.389.185-1.759 1.574-1.944 2.778-.556 2.963.37 5.834.926 8.797.37 2.037 1.018 3.982 1.574 6.019.278 1.019.833 2.408-.926 2.871h-.648c.092-1.019-.278-1.945-.741-2.778-.834-3.982-1.667-7.964-2.408-11.946-.37-2.222-.37-4.352.371-6.482.555-1.481 1.481-2.407 3.055-2.685 1.575-.278 2.778.463 3.612 1.759.926 1.389 1.667 2.871 1.759 4.538 0 2.592.926 4.815 2.963 6.759z" fill="#23222D"/><path d="M108.805 184.367c2.408 2.592 4.815 5.185 7.315 7.593 1.297 1.296 1.204 2.5-.37 3.056-3.797 1.481-7.13 3.796-11.668 3.333-5.093-.555-10.37 0-15.556-.185-2.593-.093-3.982.926-4.167 3.519-.278 3.333-2.13 4.722-5.279 4.445-3.055-.186-6.204.648-9.167-1.575-1.76-1.296-3.982.649-5.463 2.038-1.39 1.296-2.5 1.852-4.445 1.111-2.408-.926-4.167.833-6.112 1.759-6.574 3.241-8.056 2.871-11.112-3.889-2.222-5-4.722-9.816-8.149-14.075-.555-.648-.926-1.667-1.944-1.667-1.297 0-1.297 1.296-1.574 2.222-3.427 9.723-5 19.909-7.964 29.632-1.296 4.26-2.87 8.427-3.426 12.964l-1.667 15.002c-.648 5.37-.833 10.834-.648 16.297 0 1.204-.463 2.13-1.019 3.056-.463.648-.648 1.111.185 1.574 1.39.834 1.482 2.223 1.667 3.704.278 2.778-.555 6.019 2.87 7.593.371.186.371 1.389.371 2.223.093 7.408-.185 14.723.648 22.131.37 3.334 1.575 6.39 2.686 9.445.555 1.575 1.667 3.056 2.037 4.816.463 1.666 1.667 3.241 3.519 2.685s1.574-1.945 1.204-3.889c-.741-3.612.092-7.686 1.389-10.927 1.296-3.334.277-6.204.463-9.26.277-6.482-1.112-12.871-.741-19.446.092-1.667.37-3.056 2.222-3.611.834-.278 1.574-.741 1.76-1.76 1.574-9.075 3.333-18.057 4.074-27.224.463-5.371 1.574-10.557 3.797-15.557 1.203-2.871 3.148-4.26 6.296-4.26 23.984.093 47.875.093 71.858 0 3.704 0 5.926 2.964 9.26 3.797.648.185.556 1.111.741 1.667 2.037 6.389 1.944 13.149 4.445 19.446.37.833.092 1.759-.278 2.593-1.667 3.426-.741 6.852-.185 10.371.277 1.389 1.296 1.296 2.315 1.296h33.15c.926 0 1.667-.185 2.408-.741 2.315-1.389 4.352-.277 6.389.926 2.038 1.204 2.778 2.686 2.13 5.186-1.296 5 .093 10.001 1.389 14.816 2.686 9.538 2.5 19.539 4.538 29.169.37 1.945 1.018 3.797 1.203 5.741.278 2.037 1.389 2.5 3.149 2.408h1.296c2.871-.093 5.278.833 6.112 3.889.741 2.685-1.389 5.649-4.445 6.852-1.574.649-3.241.556-4.908.556H35.095c-2.037.093-2.963 1.296-1.944 3.056 3.889 6.482 5.741 13.982 10.649 19.909 1.389 1.667 2.685 2.315 4.722 2.222 8.334-.555 16.298 1.019 24.076 4.352 10.835 4.63 19.076 12.038 25.095 21.947 5.649 9.352 7.686 19.723 7.13 30.65-.092 2.315.093 4.075 2.5 5.464 2.038 1.203 3.056 3.796 5.371 5.185 3.889 2.408 7.686 4.26 12.501 3.334 2.686-.463 5.371-.371 5.556 3.611.093 1.574 1.667 2.5 3.056 3.149 4.352 1.944 8.612 4.074 13.334 5.463 4.445 1.296 8.705 3.519 13.242 4.723 2.871.74 5.556 1.666 8.705 1.574 1.944-.093 3.889 1.481 5.833 1.759 3.982.648 8.242.371 11.946 1.667 3.796 1.296 7.5.741 11.204 1.019 2.871.185 3.704-1.019 3.149-3.797-.648-3.056-.741-6.297-1.76-9.353-.37-1.018-.648-1.944-1.852-2.037-1.574-.092-2.963-.37-2.87-2.315.092-2.13-.741-4.63 2.13-5.556 1.574-.463 1.481-1.296 1.296-2.778-1.019-8.612-.556-17.131.833-25.835 1.482-9.26 5.464-17.594 7.408-26.669 1.019-4.815 3.056-9.445 3.519-14.538 0-.185 0-.556.093-.648 6.019-5.834 0-9.538-2.5-13.798-1.76-3.056 1.296-3.241 2.407-4.63.371 3.241 2.686 5.464 4.63 7.686 2.223 2.685 2.593 5 1.297 8.241-1.945 4.816-3.241 9.909-4.816 14.909-5 15.835-10.926 31.484-10.463 48.43.37 11.482 2.5 22.779 4.722 33.984.463 1.945-.555 2.037-2.222 2.037-13.427-.278-26.669-1.944-39.54-5.371C97.23 434.942 51.763 393.55 26.391 329.841c0-.092.185-.278.278-.463 4.167-1.204 8.519-.741 12.779-.741 26.483-.185 52.967-.277 79.45 0 20.095.278 40.189.093 60.19.186 4.538 0 9.075.092 13.52 0-1.852 0-3.704.092-5.556-.093-.556-.185-1.296-.556-1.111-1.019 1.296-3.333-.093-6.667-.185-9.908 0 0 .185-.092.277-.092h-.37c-.093 1.944.556 3.796.741 5.741.185 3.148-.463 4.352-3.797 5.463-19.816.093-39.54 0-59.356 0-3.797-.833-5.093-2.5-4.445-6.111.185-1.297.185-2.593.463-3.89 2.13-11.945 3.704-23.89 5.741-35.836.556-3.148.926-6.297 1.482-9.445.463-2.685 1.296-5.186 4.537-5.834 14.168.371 28.336.093 42.503.185.834 0 1.76 0 2.501.556 1.852 1.296 2.5 3.334 2.778 5.463 1.111 7.964 2.5 15.835 3.611 23.706.37 2.13.556 4.26 1.019 6.297.185 2.593.926 5.093 1.018 6.76-.278-2.13-.741-5.093-1.296-8.057-.278-2.129-.648-4.167-1.019-6.204-1.018-7.686-2.407-15.279-3.519-22.965-.277-1.852-.833-3.611-2.5-4.815-1.296-1.018-2.778-.648-4.167-.648h-34.725c-3.982 0-4.63-.741-5.093-4.815-.926-8.056-1.759-16.205-3.241-24.169-.555-3.148-2.037-4.537-5.093-4.537a9493.625 9493.625 0 00-72.783 0c-.463 0-.834.092-1.297.278-2.963.74-4.167 2.778-4.445 5.648-.555 4.167-1.018 8.427-1.574 12.594-1.667 12.871-3.426 25.65-5.093 38.521-1.111 8.612-2.407 17.131-3.24 25.836-.649 3.148-1.205 6.204.647 9.26.37.648.37 1.481-.463 2.037-2.963.278-6.019.833-8.982-.37-1.389-.463-1.389-1.852-1.852-2.964-4.26-12.315-7.13-24.909-8.704-37.78-.093-.834-.37-1.667-.556-2.501-.278-3.518-.555-6.945-.833-10.463-.556-12.594 0-25.188 1.389-37.781.37-1.852.926-3.797.833-5.741 2.223-10.372 4.352-20.743 7.964-30.651 1.944-5.278 3.982-10.464 5.926-15.742a84.894 84.894 0 002.223-4.167c1.481 1.389 2.037 3.148 2.963 4.723a3782.397 3782.397 0 0111.112 19.909c.74 1.296 1.204 2.129 2.963 1.389 5.649-2.315 11.482-4.445 17.131-6.76 3.241-2.871 7.5-3.519 11.297-5.001 8.427-3.333 17.039-6.482 25.558-9.723 1.574-.648 3.056-1.666 4.815-.74z" fill="#FEFEFE"/><path d="M26.669 328.174c3.055-.092 6.111-.092 9.167-.185 1.574-.185 3.148-.092 4.63-.648 3.426-.37 6.852-.37 10.279 0 1.666.648 3.426.463 5.093-.093 11.112-.555 22.131-.185 33.243-.185 6.02 0 12.038-.278 18.057.185 1.297.278 2.593.741 3.889.186a26.678 26.678 0 017.686 0c1.297.277 2.5 1.111 3.889.74 12.687-.092 25.373-.092 38.059-.185h22.872c.926.185 1.852-.185 2.778-.092h11.668c-1.482 2.037-2.963 1.481-4.075 1.481H29.817c-1.111 0-2.222-.092-3.334-.185.186-.185.186-.648.186-1.019zm373.456-59.634c-.278-.556-.834-.648-1.389-.741 1.666-1.018 3.518-1.389 5.278-1.944.463.463.926.926 1.296 1.389-1.852-.278-3.241 1.481-5.185 1.296zM242.427 445.962c0 2.407 0 4.722-.093 7.13 0 1.204 0 2.222 1.574 2.222-.277.185-.463.463-.74.648-.649-.185-1.297-.463-1.204-1.296.092-2.871-.556-5.834.463-8.704z" fill="#282828"/><path d="M309.377 71.302c1.111-1.667 2.407-.278 3.611-.185 1.852.185 3.611.555 5.371.833 7.315.093 14.26 2.315 21.298 3.797 24.168 5 48.337 9.908 72.413 15.001 1.204.278 2.408.463 3.148 1.482 7.408 1.574 14.816 3.24 22.317 4.722 1.852.37 2.315.926 1.945 2.87-4.908 23.058-9.723 46.116-14.631 69.173-1.389 6.297-6.204 9.167-12.686 7.778l-11.946-2.5c1.574-4.352 4.167-8.334 3.982-13.242-.093-1.759 2.222-.37 3.148-1.203 2.778-2.408 3.427-5.742 4.075-9.075 2.315-11.575 4.908-23.058 7.315-34.54.926-4.537-.278-6.667-4.908-7.686-15.742-3.426-31.391-6.76-47.226-9.908-9.26-1.852-9.723-1.574-11.76 7.501-2.5 11.204-4.908 22.409-7.13 33.613-1.111 5.742.185 7.686 5.834 8.797.926.186 1.944.556 2.963.556 7.315 1.574 14.538 3.056 21.854 4.63 4.815 1.111 9.63 2.037 14.445 3.056 5.649 1.204 5.834 1.574 3.241 6.76-.833 1.852-2.13 3.333-4.074 4.167-.741.277-1.482.648-1.945 1.296-2.222 3.334-5.278 3.241-8.704 2.5-22.039-4.908-44.17-9.26-66.209-13.797-4.815-.834-9.538-2.315-14.353-2.871-1.111-.185-2.408-.37-3.056-1.574-4.723-1.111-9.353-2.315-14.075-3.148-2.593-.463-3.612-1.112-2.871-4.167 3.982-17.687 7.593-35.466 11.297-53.245.093-.649.186-1.297.186-1.945 1.666-2.037 2.778-.093 3.611.833 4.167 4.26 8.612 8.15 13.242 11.853 1.296 1.019 2.593 2.037 3.982 2.963 2.129 1.389 2.592 1.204 2.778-1.389.092-2.778-.556-5.463-.926-8.148-.556-4.075-.186-4.908 3.704-5.834 3.333-.834 6.574-1.76 9.815-2.686.834-.277 2.13-.277 2.315-1.574.093-1.296-1.111-1.574-1.944-1.944-6.112-2.871-11.668-6.668-17.039-10.65-.926-1.018-1.944-1.666-2.407-2.87z" fill="#FEFEFE"/><path d="M324.193 70.654c7.593-.37 12.501-4.445 14.723-12.871.556-1.945 1.296-2.871 3.241-2.408 13.612 1.852 26.947 5.37 40.374 8.056 7.037 1.389 13.982 2.778 20.927 4.445.648.185 1.297.185 1.76.833 10.093 2.13 20.094 4.445 30.187 6.482 8.89 1.852 8.89 1.667 7.038 10.557-.741 3.333-1.297 6.667-2.037 10-2.13.649-4.075-.185-6.112-.555-5.834-1.111-11.575-2.315-17.409-3.426-9.538-1.112-18.89-3.612-28.243-5.556-20.835-4.167-41.67-8.797-62.597-12.964-.741-.186-1.482-.556-2.223-.648-.741-.093-1.852 0-1.852-.927.185-1.296 1.667-.462 2.223-1.018z" fill="#966536"/><path d="M324.193 70.654c-.463.278-.926.463-1.852.926 14.167 2.963 28.15 5.926 42.04 8.797 16.761 3.519 33.614 7.037 50.374 10.556.741.185 1.482.463 2.223.741-.556.185-1.111.463-1.574.648-32.04-6.667-64.08-13.242-96.027-19.909-.277-.092-.555-.278-.833-.463 1.574-1.667 3.611-1.574 5.649-1.296z" fill="#282828"/><path d="M28.799 136.863c11.482-4.26 23.057-8.519 34.54-12.872l20.279-7.778c.648-1.019 1.76-1.296 2.778-1.667 19.909-7.223 39.725-14.816 59.542-22.409 2.037-.74 3.148-.463 4.074 1.76 4.167 10.463 8.519 20.927 12.871 31.483 3.89 9.538 7.871 19.076 11.761 28.706 1.574 3.704 1.389 3.982-2.408 5.464-11.019 4.445-22.224 8.426-33.243 12.871-1.575 1.019-.371 2.13 0 3.149 2.685 6.667 5.926 12.964 8.519 19.631.278.741 1.111 1.759.278 2.407-1.019.741-1.76-.37-2.501-.926-6.482-5.37-13.056-10.463-19.353-16.019-2.222-1.945-4.167-2.038-6.852-1.019-16.483 6.389-33.059 12.594-49.634 18.798-1.019.37-1.945 1.018-3.148.741-5.093 1.852-10.186 3.611-15.187 5.556-1.76.648-2.685.463-3.611-1.297a11740.99 11740.99 0 00-32.41-58.245c-1.204-2.13-.648-2.778 1.389-3.426 4.167-1.667 8.241-3.334 12.316-4.908z" fill="#DDDCFB"/><path d="M66.394 198.997c13.335-5.093 26.762-10.186 40.096-15.371 4.723-1.76 9.538-3.519 14.168-5.371 1.759-.741 2.963-.463 4.445.741 7.315 6.111 14.816 12.13 22.687 17.964-2.686-6.111-5.371-12.13-8.057-18.242-.74-1.574-1.389-3.241-2.129-4.815-.556-1.111-.556-1.945.926-2.13.648-.37 1.296-.556 1.296.556-1.667.926-.648 2.037-.185 3.055 3.241 7.316 6.482 14.724 9.723 22.039.463 1.019 1.018 1.945.833 3.797-3.426-2.778-6.482-5.093-9.445-7.593-5.278-4.353-10.556-8.612-15.742-13.057-1.667-1.389-3.056-1.667-5-.741-3.704 1.667-7.501 3.056-11.298 4.538a6497.827 6497.827 0 01-38.429 14.353c-1.018.37-2.037.648-3.148 1.018l-.74-.741z" fill="#282828"/><path d="M287.616 226.777c-14.076-7.685-28.151-15.464-42.319-23.15-2.685-1.481-5.37-3.055-8.148-4.352-1.852-.833-2.13-1.574-.834-3.333 8.982-12.409 17.779-24.91 26.854-37.318 1.574-2.13 1.389-3.519-.278-5.001-1.574-1.481-3.333-2.87-5.093-4.444 2.13-1.945 4.167-2.501 7.131-1.852 10.649 2.407 21.298 4.444 32.039 6.667 3.982 0 7.779 1.111 11.575 1.944 1.852.371 3.704.741 5.464 1.112 18.242 3.889 36.577 7.5 54.819 11.482 1.759.37 2.963 1.111 3.796 2.778 1.389 2.963 3.334 5.649 5.556 8.149 2.038 2.222 1.852 3.056-.926 4.352-1.944.926-3.889 2.13-6.019 2.685-1.018 1.575-.092 3.056 0 4.63 1.667 4.538 1.76 9.446 2.501 14.168 1.111 7.038 2.037 14.075 3.055 21.113.556 3.519.834 7.13 1.482 10.742.278 1.666-.833 2.222-2.408 2.407-2.5.278-4.815-.463-7.222-.741-8.705-1.018-17.409-2.037-26.114-2.963-8.704-1.018-17.316-2.593-26.02-3.611-1.667-.278-3.334-.278-4.908-.834-2.13-2.5-2.13-5.926.556-7.13 3.796-1.667 6.667-4.445 9.723-6.945.648-.278 1.296-.37 1.944-.555 6.853-1.667 11.297-5.649 12.779-12.687 1.389-6.667-1.019-12.038-6.297-15.927-2.407-1.852-3.333-3.704-3.241-6.667.185-6.297-2.87-11.019-8.334-13.983-5.556-2.963-11.39-2.963-16.668.463-3.056 1.945-5.741 2.778-9.445 1.945-5.741-1.296-12.316 3.056-14.538 9.075-2.315 6.297 0 13.427 5.463 16.853 1.019.648 2.223 1.019 3.149 1.852 1.296 1.482 1.018 3.148.74 5-.74 5.186-.74 10.186 2.686 14.631.833 1.111 1.759 2.223 2.315 3.519 1.018 2.037.555 4.074-.834 5.834-1.111 1.111-2.5 1.296-3.981.092zm118.25-67.598c-1.852.463-3.334-.833-5.093-1.018-1.019.37-2.037.741-3.149.278-5.833-2.038-11.945-2.593-17.871-4.167-7.316-1.482-14.631-3.056-21.947-4.63-1.759-.186-3.426-.741-5.185-1.019-4.445-.741-6.297-3.426-5.371-7.778 2.778-12.594 5.371-25.28 8.056-37.874 1.019-4.815 3.519-6.297 8.242-5.278 16.668 3.519 33.336 7.038 50.096 10.556 4.723 1.019 6.112 3.149 5.093 8.057-2.593 12.871-5.463 25.65-8.056 38.521-.463 2.778-1.852 4.352-4.815 4.352z" fill="#FEFEFE"/><path d="M400.217 159.087c3.056.555 3.056 2.778 2.593 5.093-1.019 4.722-4.26 8.519-5.649 12.871-2.037 6.76-7.593 7.779-12.871 9.445-.37 0-.833 0-.926-.185-2.685-4.908-7.408-8.149-10.001-13.056-.555-.926-1.204-2.038-.555-3.149.648-1.111 1.852-.463 2.778-.37 3.333.463 6.574 1.481 10 2.037 1.204.185 1.852 1.111 2.038 2.408-.186-3.427 1.574-5.464 4.352-6.76 1.759-.834 3.148-1.945 3.704-3.889 1.018-1.852 1.296-4.538 4.537-4.445z" fill="#FDFCFD"/><path d="M405.866 159.179c2.5-.833 3.796-2.5 4.352-5.185 2.593-12.872 5.463-25.65 8.149-38.429.741-3.612-.741-5.649-4.352-6.482l-51.393-10.834c-3.519-.741-5.556.37-6.297 3.889a2922.078 2922.078 0 00-8.334 39.077c-.834 3.889.555 5.741 4.537 6.575 1.852.37 3.612.926 5.371 1.389-.278.648-1.111.277-1.482.74-10.186-1.574-11.204-2.963-9.074-12.964 2.407-11.204 4.722-22.409 7.037-33.613 1.297-6.02 3.519-7.501 9.631-6.297 16.575 3.519 33.243 6.945 49.818 10.464 5.186 1.111 6.853 3.611 5.742 8.797-2.686 12.871-5.464 25.65-8.149 38.521-.463 2.408-1.574 4.352-4.167 5.001-.371-.186-.834-.463-1.389-.649z" fill="#343434"/><path d="M316.044 231.407c7.223 1.019 14.353 2.038 21.576 2.964 12.408 1.481 24.909 2.87 37.317 4.352 2.315.278 2.778-.278 2.408-2.593-2.222-15.001-4.167-30.095-6.297-45.096.834-.371.278-1.76 1.482-1.852-.185 6.574 1.481 12.871 2.315 19.261 1.018 8.704 2.5 17.408 3.611 26.113.371 3.241 1.111 5.556 5.093 5 .926-.092 2.037-.092 2.963 1.297-2.87.648-5.556 0-8.056-.278-10.556-1.111-21.205-2.5-31.762-3.704-9.167-1.019-18.334-2.223-27.409-3.797-1.852-.37-3.889-1.018-5.741.278-.926-2.778 1.666-1.296 2.5-1.945z" fill="#282828"/><path d="M396.05 163.902c-.185 2.13-1.296 3.426-3.519 4.167-3.148 1.019-4.537 3.519-4.63 6.852 0 1.019.556 2.13-.463 2.964-.277-.186-.648-.278-.648-.371.741-5.093-2.87-5.371-6.389-5.926-2.5-.371-4.908-1.019-7.779-1.574 2.038 7.037 8.797 10.463 11.483 16.575-.556.648-1.389.37-2.13.37-2.871-3.148-2.871-3.148-7.038-1.111-1.018.556-1.944 1.482-3.333 1.297-.278-.278-.463-.556-.741-.834.833-1.481 2.315-1.944 3.704-2.593 1.389-.648 2.778-1.203 4.445-1.944-3.519-3.426-6.39-6.945-8.056-11.39-.463-1.296-1.76-1.111-2.778-1.296-17.317-3.704-34.633-7.316-51.949-11.02-.833-.185-1.667-.463-2.5-.741.278-.648 1.018-.277 1.481-.648 20.65 4.26 41.207 8.519 61.857 12.779 1.482.278 3.056.556 4.538 1.019 2.963.833 5.741 1.481 7.5-2.038.371-.648 1.297-1.296 2.13-1.481 2.222-.556 3.148-2.037 3.982-3.889.555.092.648.555.833.833z" fill="#29292B"/><path d="M371.789 187.237c1.389-1.296 3.056-2.13 4.815-2.87 4.167-1.76 4.167-1.76 5.556 2.592-3.426.463-6.852 2.501-10.371.278z" fill="#EBECEE"/><path d="M396.05 163.902c-.278-.278-.463-.556-.741-.833.186-1.575 1.482-2.593 2.038-4.26a6403.172 6403.172 0 01-19.076-4.167c.093-1.296.833-.833 1.574-.648 5.556 1.111 11.112 2.037 16.576 3.426 1.481.37 3.055 0 4.352.833a6.227 6.227 0 01-.648 1.019c-2.223.648-3.334 2.5-4.075 4.63z" fill="#29292B"/><path d="M405.31 68.71c-17.501-3.612-35.003-7.224-52.504-10.928-3.519-.74-7.038-1.574-10.556-2.407 1.203-.093 2.5-.093 3.796-.185 11.112 2.222 22.224 4.444 33.336 6.76l27.502 5.833c-.463.741-1.018.741-1.574.926zM139.919 172.421a18.3 18.3 0 01-1.297-.555c11.205-4.353 22.317-8.797 33.521-12.964 2.778-1.019 3.149-1.945 2.038-4.63-8.242-19.724-16.391-39.448-24.354-59.264-1.111-2.778-2.223-2.871-4.723-1.945-19.353 7.408-38.707 14.631-58.06 21.946-1.111.463-2.315.741-3.426 1.111-.185-.648-1.111-1.296 0-1.852 2.222-.092 4.26-1.018 6.297-1.759 18.89-7.13 37.78-14.168 56.578-21.39 2.223-.834 2.963-.278 3.797 1.759 8.426 20.742 16.946 41.392 25.465 62.134 1.018 2.501 1.018 3.612-1.945 4.723-11.297 3.982-22.594 8.427-33.891 12.686z" fill="#282828"/><path d="M316.044 231.407c-.556 1.112-2.686.093-2.686 2.038-7.222 12.223-14.538 24.446-21.761 36.669-2.129 3.612-4.63 6.945-6.111 10.927-.185-.463-.463-.926-.648-1.389.833-14.446 1.574-28.799 2.407-43.244.185-2.778.185-5.464.278-8.242 0-.277.093-.463.093-.74a6.379 6.379 0 014.537 0c2.871 3.055 3.148 7.315 5.278 10.741 3.889-2.685 7.593-5.926 11.853-8.334.926-.185 1.482.648 2.222.834 1.575.092 3.149.092 4.538.74z" fill="#1D2844"/><path d="M270.948 70.469c.463.648.926 1.389 1.389 2.037.37 1.481-.741 2.222-1.575 2.963-5 5.093-10.371 9.816-15.649 14.538-1.019.926-2.13 1.852-3.056 2.87 2.13 2.223 5.556.093 7.316 2.594-.926.37-2.13-.186-2.871.74-1.667-.185-3.241-.278-4.908-.555-1.204-.186-2.5-.37-2.778-1.852-.278-1.297.741-1.945 1.574-2.686 6.575-5.37 12.594-11.204 18.706-17.13.37-.371.648-.834 1.389-1.575-3.519 1.204-6.39 2.5-9.446 3.241-6.389 1.574-12.778 2.5-18.705-1.667.185-.555.556-.926 1.204-1.018 8.241 2.593 16.205 1.574 23.983-2.037 1.112-.556 2.223-1.204 3.427-.463z" fill="#282828"/><path d="M243.26 73.154c-.278.278-.555.556-.833.74-4.445-3.518-6.667-8.24-7.316-13.704.278-.278.463-.648.741-.926 1.852 1.296 1.574 3.519 2.408 5.278 1.389 3.334 1.574 3.426 4.537 1.482 2.5-1.667 5.278-2.686 8.149-3.241 1.204-.278 2.408-.556 3.426.463.741.092 1.482-.093 2.037.555-1.111 1.39-2.778 1.204-4.167 1.482-2.315.463-4.444 1.204-6.482 2.315-2.315 1.204-3.889 2.685-2.5 5.556z" fill="#282828"/><path d="M266.781 110.472c2.407 3.056 3.889 1.481 5.556-.278 6.111-6.389 11.389-13.427 15.927-21.02.555-.926.648-2.87 2.222-2.223 1.297.556.834 2.038.556 3.241-3.982 18.706-7.871 37.411-11.76 56.116-.371 1.852-1.019 2.408-2.871 2.037-4.908-1.111-9.908-2.13-14.816-3.148-1.574-.278-1.945-1.111-1.667-2.593 2.223-10.464 4.445-20.928 6.853-32.132z" fill="#966536"/><path d="M259.373 95.563c-2.408-.37-4.816-.74-7.131-1.204-.648-.092-1.481.093-1.759-.648-.278-.926.648-1.296 1.204-1.76 7.037-5.555 13.242-11.945 19.631-18.149.37-.37.648-.833 1.019-1.296.926-.926 1.852-1.852 2.87-2.686 2.037-1.759 4.075-2.778 7.13-2.315 4.353.741 8.705.186 12.872-1.481.926.37 1.018 1.111.833 1.852a58.31 58.31 0 01-5.556 15.464c-.278.463-.741.74-1.296.926-4.723 9.167-10.834 17.316-17.779 24.817-.649.648-1.204 1.944-2.315 1.481-.926-.37-.463-1.574-.556-2.407-.185-3.056-.556-6.112-.556-9.26 0-2.593-1.203-3.519-3.704-3.426-1.574.185-3.241.092-4.907.092z" fill="#FEFEFE"/><path d="M296.876 65.931c2.87-.926 4.815.926 6.852 2.222 1.667 1.112 3.241 2.5 4.908 3.797 4.074 1.76 7.223 5 10.927 7.223 3.055 1.76 6.019 3.704 9.167 5.186.926.463 2.315.833 2.037 2.222-.185 1.296-1.481 1.481-2.5 1.76-3.611 1.018-7.223 2.037-10.834 2.87-2.778.648-3.056 2.407-2.593 4.722.556 2.964 1.204 6.02 1.204 9.075 0 1.945-.834 2.871-2.686 1.575-7.037-5.093-13.704-10.742-19.446-17.224-.185-.278-.277-.648-.37-.926-.833-1.111-1.759-2.13-2.593-3.241-.463-.37-.648-.926-.37-1.482 2.778-5.74 4.259-11.852 6.297-17.779z" fill="#FCFDFE"/><path d="M241.871 143.437c1.297-1.111.093-2.315-.185-3.333-1.204-4.352-2.408-8.705-2.315-13.242 0-1.111.185-2.222.463-3.241.37-1.296 1.204-2.037 2.593-2.13 1.296-.092 2.037.834 2.407 1.945.371 1.018.834 2.13.834 3.148-.093 3.056 1.204 5.186 3.611 6.853 2.037 3.611 2.223 7.222.185 11.204 3.519-.185 6.297.741 9.723 1.482-2.592 1.852-5.463 2.778-6.574 5.648-.185.463-.648.649-1.111.371-3.519-2.408-7.501-4.167-9.723-8.149 0-.093.092-.37.092-.556z" fill="#FCFBFD"/><path d="M293.542 88.34c6.575 6.76 13.52 13.15 22.131 18.891-.555-4.167-.926-7.5-1.296-10.834-.648-4.63-.556-4.816 3.797-5.927 4.167-1.111 8.241-2.222 13.427-3.611-8.705-4.538-16.298-8.983-22.965-14.816.278-.186.555-.463.741-.649 6.759 4.63 13.334 9.724 20.927 13.15.926.463 1.76 1.11 1.667 2.222-.093 1.296-1.019 1.76-2.222 2.037-3.89 1.019-7.779 2.315-11.761 3.149-2.315.463-2.685 1.666-2.407 3.704.463 3.148.926 6.297 1.296 9.445.185 1.111.185 2.222-1.018 2.871-1.204.648-2.038-.093-2.964-.741-6.482-4.723-12.593-9.908-18.242-15.65-.555-.555-1.018-2.407-2.407-.926-.186-1.296.926-1.574 1.296-2.315z" fill="#282828"/><path d="M292.153 228.166c-1.389-.926-2.963-.555-4.537-.648v-.741c1.203-.185 3.148 1.297 3.611-.74.463-1.852 2.315-3.982-.093-5.927-.74-.555-1.111-1.574-1.666-2.315-.278-.648.092-.926.648-1.111 1.389 0 2.037 1.204 2.778 2.037 7.5 7.779 18.057 6.112 24.631.463 1.112-1.018 1.945-2.407 3.704-2.5.556.185.926.556 1.019 1.019-2.685 2.87-5.741 5.278-9.445 6.945-2.686 1.203-2.408 3.704-1.389 6.019-.834.277-1.389-.371-2.13-.556-.278-3.056-2.037-3.611-4.815-3.241-2.408.278-4.815-.556-7.038-1.574-2.13-.926-3.796-1.297-4.352 1.667 0 .555-.37.926-.926 1.203z" fill="#1D2844"/><path d="M263.262 156.587c-3.612.092-6.112-1.482-8.797-2.686-1.297-.555-.648-1.389-.093-2.037.648-.926 1.019-2.5 2.686-1.296 2.222 1.481 4.444 3.055 6.204 6.019z" fill="#EFF0F3"/><path d="M296.876 65.931c-.463 5.371-2.315 10.371-4.445 15.187-.556 1.296-1.482 2.407-1.389 3.981-.556-.277-1.111-.463-1.667-.74 2.315-4.816 4.445-9.723 5.649-15.002.277-1.11.648-2.13.277-3.24.463-.093 1.019-.186 1.575-.186zm18.52 90.841c-.463.185-1.019.463-1.482.648-5.649-1.204-11.39-2.408-17.038-3.519.277-.278.555-.463.926-.741a5688.323 5688.323 0 0017.594 3.612z" fill="#282828"/><path d="M326.693 57.968c-.463-.278-.926-.463-1.389-.741-3.334.092-6.575.092-9.908 0-5.464 1.111-11.112 1.76-16.483 3.333-.463-2.963.555-5.74.555-8.519-1.203-1.481-.926-3.056-.463-4.63-1.018-3.982.463-6.39 4.167-8.334 6.112-3.24 12.131-6.76 18.983-8.334 7.686-1.76 11.761.463 14.353 7.871 2.223 6.39 3.056 12.872 1.204 19.539-1.111 3.889-1.204 3.889-4.445 2.037-2.407-.278-4.63-.926-6.574-2.222zm-72.321 5.278c-4.908.092-9.352 1.574-12.871 5-1.574 1.574-2.037.741-2.778-.555-1.482-2.593-2.13-5.556-2.871-8.427-.37-5-.37-9.908 1.019-14.723 1.481-5.093 4.445-7.501 9.815-7.686 9.631-.278 18.15 3.704 26.762 7.5.741.37 1.204.926 1.018 1.852-.648 5.649.649 11.112 2.038 16.761-2.13.278-4.167-.185-6.205-.556-4.63-.37-9.26-.463-13.89 0-.555.463-1.481.093-2.037.834z" fill="#FEFEFE"/><path d="M298.265 54.078c0 .186-.093.463-.093.649-.37 3.426.278 7.685-2.871 9.815-4.074 2.686-9.074 2.315-13.797 1.852-2.037-.185-2.871-1.944-3.519-3.611-2.037-5.093-2.5-10.464-2.315-15.927.093-2.13 1.574-2.778 3.149-3.334 4.259-1.389 8.611-1.945 12.964-1.945 5.278 0 5.833.556 6.389 5.742 1.204 2.222.463 4.444.093 6.76z" fill="#DDDCFB"/><path d="M332.619 60.653c3.334 2.963 3.241 3.611-.555 6.112-3.89 2.5-8.149 3.148-12.687 2.87-6.852-.37-13.241-2.407-19.446-4.908-.74-.277-1.944-.37-1.852-1.574.093-1.296 1.297-1.389 2.223-1.667 8.241-2.13 16.575-3.704 25.094-3.055 2.686-.37 5.093.37 7.223 2.222z" fill="#DBD9F7"/><path d="M243.26 73.154c-2.5-1.482-2.407-2.87-.185-4.723 3.982-3.148 8.704-3.981 13.427-4.722 6.482-.556 12.871-.093 19.261.74.833.093 1.944.093 2.222 1.112.371 1.204-.926 1.389-1.574 1.76-1.759 1.11-3.611 2.036-5.371 3.148-5.463 1.944-10.649 4.63-16.668 4.815-3.889.185-7.686-.185-11.112-2.13z" fill="#E0DCFA"/><path d="M268.54 40.096c2.871.648 5.741 1.204 8.612 1.852-.093.37-.185.74-.185 1.111-3.427 1.667-5.742-1.852-8.427-2.963z" fill="#966536"/><path d="M256.502 62.505a31.95 31.95 0 0113.89 0h-13.89z" fill="#E0DCFA"/><path d="M332.619 60.653c-2.315-1.111-4.722-1.76-7.223-2.13.463-.185.834-.37 1.297-.556 2.407 0 4.537 1.02 6.574 2.13-.277.185-.463.37-.648.556zm-34.354-6.575v-6.76c.277 0 .555 0 .74.093 1.204 1.482.556 3.056.463 4.63-.37.648-.74 1.297-1.203 2.037zm17.131 3.149c3.333-.926 6.574-1.019 9.908 0-.185.092-.463.092-.648.185-2.871.37-5.742.278-8.612 0-.185-.093-.371-.093-.648-.185z" fill="#282828"/><path d="M316.044 57.412a44.6 44.6 0 018.612 0c-2.871.74-5.742.74-8.612 0zM39.91 328.174c-1.388 1.019-2.777 1.019-4.074-.092-2.315-3.241-2.407-6.853-1.296-10.464.74-.278 1.111.278 1.667.463 2.963-2.037 4.907-4.63 5.278-8.241a6036.746 6036.746 0 017.223-58.987c.463-3.704-1.39-6.482-2.686-10 0 0-.555.648-.185.37 1.204-.741-.648 10.556-2.13 13.612-1.389-.463-.833-1.481-.648-2.315.556-4.537.926-9.075 1.574-13.612.37-2.315 1.76-4.26 4.26-4.908.555-.278.926 0 1.111.556-3.426 2.778-1.389 5.556 0 8.334.648 1.296 1.389 1.667 2.408.463 2.685-3.149 6.389-5.371 9.074-8.612 1.297-.926 2.593-1.759 3.612.37-2.037 2.315-2.87 5.001-3.241 8.057-.926 8.148-2.037 16.205-3.241 24.261-.185 1.111-.093 2.222-1.39 2.778-2.222-.556-1.573-2.315-1.48-3.797.74-7.315 1.851-14.631 2.777-21.946.093-.741.278-1.482.093-2.778-3.149 2.963-6.575 5.278-7.13 9.908-2.223 19.168-4.445 38.244-6.945 57.412-.649 4.723 1.759 7.13 4.722 9.631-.555-2.038.185-3.982.463-5.927.185-.926.741-1.574 1.945-1.296 1.76 2.407.555 5 .092 7.315-.74 3.982-.092 7.13 3.241 9.538-1.389.926-2.778 1.111-4.074-.185-1.389-.556-1.852-1.945-2.037-3.149-.556-3.055-2.87-4.907-4.815-6.852-.463-.463-1.112-1.019-1.76-.741-2.685 1.297-4.352 3.704-5.648 6.297-1.019 2.037 1.203 2.963 2.5 3.982.37 0 .555.278.74.555z" fill="#282828"/><path d="M65.098 234.741c-1.482-1.667-2.315-.278-3.241.648-3.982.278-8.056 1.204-11.946-.648a8.249 8.249 0 00-.926-.833c1.112-.926 2.5-.649 3.797-.649h69.82c5.093 0 7.038 1.482 7.686 6.575 1.111 7.964 2.223 15.927 3.056 23.891.278 2.593 1.111 3.519 3.797 3.426 11.945-.185 23.798-.093 35.743-.093 1.482 0 3.149-.277 4.26 1.204-.093.463-.463.741-.926.834-1.297-.834-2.778-.649-4.167-.649-13.798 0-27.688-.092-41.485-.092-1.574-.648-2.408 1.204-3.797 1.018-3.426-.37-6.852.186-10.278.463-.463-.37-.834-.833-.648-1.481 1.018-2.037 2.87-2.223 4.815-2.315 2.5-.093 5.093-.093 7.593-.093 2.037 0 2.871-.926 2.593-2.87-.926-7.779-1.76-15.557-3.149-23.243-.648-3.426-2.129-4.26-6.296-4.26h-51.3c-1.668.186-3.52.556-5.001-.833z" fill="#282828"/><path d="M116.12 269.188c.278.278.463.556.741.741 3.056 5 3.056 4.908 7.501.741.833-.741 1.481-1.945 2.963-1.574.926-.834 1.759-2.315 3.241-.741-2.315.833-2.871 2.778-3.148 5-2.223 14.816-4.538 29.632-6.853 44.448-.092.463-.278.834-.463 1.204-.741-.37-1.111-1.019-1.296-1.667-.093-5.371 1.296-10.464 2.037-15.742 1.204-8.889 2.685-17.686 4.074-26.854-2.778 1.852-4.167 4.075-4.63 7.038-.648 4.63-1.481 9.167-2.129 13.705-.278 1.666-.278 3.333-1.482 4.63-1.019.185-1.204-.556-1.482-1.204-.37-6.019 1.389-11.76 2.038-17.687.277-2.222.092-4.259-1.019-6.297-1.019 7.316-2.222 14.446-3.334 21.576-.185.926-.277 2.037-1.389 2.408-.833-.278-1.111-.926-1.389-1.667.649-8.612 2.408-17.038 3.797-25.558.37-.926.833-2.037 2.222-2.5zm-72.969-16.76c.186.74-.092 1.666.741 2.222 1.204 1.204.926 2.593.741 4.074-2.408 18.335-4.815 36.763-7.223 55.097-.277 1.852.278 4.075-1.944 5.279-.185-.556-.185-1.204-.834-1.482 1.111-9.538 2.223-18.983 3.427-28.521 1.481-11.39 2.963-22.687 4.444-34.077.093-.926.463-1.759.648-2.592zm112.695 54.541c-3.982 1.945-6.945 1.204-9.723-2.5-3.426-4.63-4.815-10.001-5.649-15.65-.37-2.315-.185-4.63-2.593-6.296-1.574-1.112-1.203-3.241.371-4.63 1.389-1.297 3.056-1.297 4.445.092 1.481 1.389 1.759 3.426.185 4.63-1.945 1.482-1.667 3.149-1.389 4.908.833 5.278 1.852 10.371 4.815 15.001 2.5 3.982 4.815 5.001 8.704 3.704.649-.278.926.093.834.741z" fill="#282828"/><path d="M119.454 317.525c.185.556.463 1.019.648 1.575-.092 1.203-.092 2.407-.37 3.518-.741 2.778.185 4.63 2.87 5.556-1.203.926-2.315 1.112-3.333-.185-1.76-1.574-1.389-4.445-3.426-5.926-1.019-.741-2.038-2.871-3.427-1.111-1.203 1.574-4.537 2.592-2.315 5.556.278.463.741.833.649 1.481-1.019 1.204-1.945 1.019-2.871-.092-1.759-.834-2.222-2.501-2.037-4.167.648-6.205 1.667-12.409 2.87-18.52.093-.463.371-.741.741-1.019.556-.185 1.019.093 1.389.556 1.111 3.704-.741 7.13-.926 10.649-.092 1.481-.463 3.055-.741 4.537 2.778-1.574 2.501-4.815 4.075-7.13 1.204-.093 1.204.833 1.481 1.574-.277 2.963 1.482 4.815 3.612 6.575 0 .37.463-.278.092 0-.555-1.389 0-2.501 1.019-3.427zm43.615-33.706c-2.778-2.13-3.149-4.445-.926-6.019 1.666-1.204 3.333-1.019 4.63.648 1.203 1.574 1.111 3.334-.463 4.63-.926.741-1.945 1.297-2.038 2.686-1.574.185-.277-1.667-1.203-1.945z" fill="#282828"/><path d="M163.069 283.819c.926.278.463 1.574 1.296 1.945-.093 6.945-1.852 13.334-5.834 18.983-.648.926-1.389 1.944-2.685 2.222l-.834-.833c6.39-6.112 7.686-14.076 8.057-22.317zm13.241-14.538c.278-.278.649-.556.926-.834 1.389.834 1.667 2.223 1.945 3.612 1.296 8.149 2.5 16.205 3.704 24.354-.463.463-.093 1.203-.741 1.481-1.296-7.871-2.685-15.742-3.982-23.613-.277-1.759-.555-3.611-1.852-5zm10.094 58.708c-.926 1.111-1.852 1.297-2.778.093 2.315-1.297 2.593-3.149 2.222-5.649-.278-2.13-1.481-4.259-.092-6.389.648 3.889 2.592 7.778.648 11.945zm-2.686-25.187c.926 3.889 1.76 7.778 1.667 11.76-.278 0-.648.093-.926.093-.463-3.519-.926-6.945-1.481-10.464.463-.37.092-1.111.74-1.389z" fill="#282828"/><path d="M183.718 302.802c-.185.463-.463 1.019-.648 1.482l-.833-6.39c.278-.463.463-1.018.741-1.481.185 2.129.463 4.259.74 6.389z" fill="#282828"/><path d="M110.009 304.191c-1.574 6.482-2.13 13.242-3.241 19.816-.278 1.575.741 2.686 1.204 3.982-16.39 0-32.78 0-49.264.093-1.203 0-2.407.092-3.611.185-3.519-1.019-4.723-2.685-4.445-6.112.278-3.611.834-7.13 1.204-10.741-1.019-.926-.833-2.037-.648-3.241 1.852-12.131 3.519-24.261 5.278-36.392.185-.37.37-.648.648-.926 1.111-7.964 2.315-15.835 3.426-23.798.278-2.315.556-4.538.834-6.853.278-2.5 1.296-4.352 3.704-5.37h56.949c5.093 0 6.297.926 6.945 5.833 1.111 8.149 2.037 16.391 3.241 24.539.185 1.575-.185 1.945-1.574 1.945-3.334-.093-6.575 0-9.909 0-1.852 0-3.518.278-4.537 2.037-2.315 3.334-1.852 7.316-2.593 11.02-1.111 5.741-1.759 11.667-2.685 17.501.555 2.222.555 4.445-.926 6.482z" fill="#DDDCFB"/><path d="M39.91 328.174c-1.388-.37-2.685-1.111-3.61-2.315-.556-.74-1.02-1.481-1.02-2.407 0-.648 6.39-7.779 6.945-7.871.649-.093 1.02.37 1.39.741 2.407 2.778 6.018 4.63 6.111 8.982 0 .926.834 1.759 1.204 2.685-3.611 0-7.316.093-11.02.185z" fill="#DDDBF6"/><path d="M110.842 328.082c-3.426-2.593-3.519-2.778-.741-5.649 1.112-1.204 2.408-3.611 3.427-3.056 2.037 1.204 4.167 2.871 4.907 5.464.278 1.018.556 2.13.834 3.148-2.778 0-5.649.093-8.427.093z" fill="#F4F8F7"/><path d="M379.845 153.901c-.555.185-1.018.463-1.574.648-7.315-1.574-14.538-3.055-21.854-4.63.463-.277 1.019-.463 1.482-.74a288.489 288.489 0 0121.946 4.722z" fill="#333335"/><path d="M45.374 156.957c29.725-11.575 59.542-23.057 89.266-34.632.186.37.278.833.463 1.203-29.724 11.575-59.449 23.058-89.173 34.633-.186-.371-.37-.741-.556-1.204zm70.654-7.686c-13.798 5.371-27.688 10.742-41.485 16.113-.74.185-.926-.093-.833-.741 13.797-5.371 27.687-10.742 41.484-16.113.741-.277.926.093.834.741z" fill="#282828"/><path d="M116.028 149.271c-.278-.278-.556-.463-.834-.741 9.26-3.704 18.613-7.408 27.873-11.204.185.463.37 1.018.556 1.481-9.168 3.519-18.335 7.038-27.595 10.464zM73.71 164.643c.277.278.555.463.833.741-6.575 3.148-13.427 5.37-20.187 8.056l-.556-1.389c6.668-2.408 13.242-4.908 19.91-7.408z" fill="#282828"/><path d="M322.248 217.703l-1.019-1.019c.926-3.241.834-7.13 4.908-8.612 1.482-.278 2.871-1.018 2.686-2.593-.093-1.759-1.667-2.315-3.241-2.407-.463 0-.834-.093-1.297-.185-4.259-1.112-7.408-3.427-8.149-8.057-.277-2.037-1.481-1.389-2.685-1.111-6.945 1.945-13.797 2.5-20.465-1.111-1.296-.741-2.037-.278-2.407 1.111-.278 1.204-.463 2.408-1.019 3.426-.833 2.038-1.944 2.315-3.426.556-7.778-2.871-11.668-10.834-9.26-18.705 2.408-7.593 10.279-11.946 18.057-9.816 2.037.556 3.334.185 4.908-1.111 5.741-4.445 12.13-5.093 18.612-1.945 6.482 3.241 9.816 8.797 9.538 16.02-.092 2.408.741 3.426 2.5 4.63 5.834 3.982 8.427 11.39 6.575 18.335-1.574 7.038-7.501 11.945-14.816 12.594z" fill="#1D2844"/><path d="M286.134 197.701c.926-.093 2.315 1.204 2.685-.741.926.926.834 2.037.556 3.056-1.296 5.186-1.204 10.186.926 15.186a2.304 2.304 0 010 1.575 8.127 8.127 0 00-.833.926c-3.612-4.63-3.89-9.909-2.964-15.465.278-1.481 1.297-3.148-.37-4.537z" fill="#1D2844"/><path d="M384.383 118.435c-.093 5.001-2.964 8.334-7.131 8.242-4.259-.185-6.945-2.963-6.852-7.223.093-4.63 3.056-8.241 6.852-8.241 4.445-.093 7.223 2.685 7.131 7.222zm-.186 20.465c0-4.723 2.871-8.149 6.76-8.149 4.445 0 7.316 2.778 7.223 7.13-.093 4.816-3.148 8.242-7.13 8.149-4.167-.092-6.853-2.778-6.853-7.13zm12.964-22.502c0 1.204-.74 1.76-1.296 2.408-6.852 7.13-13.705 14.353-20.65 21.483-.833.833-1.667 2.685-3.148 1.296-1.482-1.389.185-2.315 1.018-3.241 6.945-7.222 13.89-14.445 20.928-21.668.648-.741 1.296-1.574 2.5-1.111.278.185.556.648.648.833z" fill="#343434"/><path d="M292.153 228.166c.463-1.759 1.019-3.611 1.574-5.556 4.723 2.686 9.445 4.167 14.724 3.149 1.203-.278 1.574.37 1.389 1.481-.186 1.019-.278 1.945-.371 2.964-3.611 2.778-7.315 5.556-10.834 8.334-1.204 1.018-1.759.648-2.315-.741a1004.741 1004.741 0 00-4.167-9.631z" fill="#FAFCFC"/><path d="M290.301 216.869c-3.056-5.093-3.334-10.464-2.037-16.02.278-1.203.926-2.5.555-3.796.649-2.13.649-5.093 2.038-6.112 1.574-1.111 3.426 1.76 5.463 2.408 5.741 1.852 11.297 1.111 16.853-.371 1.204-.277 2.315-.74 3.982-1.203-1.111 6.204 2.408 8.889 7.501 10.556 1.018.556 1.574 1.667 2.5 2.315.926.926.463 2.037.278 3.056-.186.463-.463.833-.741 1.204-1.204.185-2.315.277-2.593 1.852-.37 2.222-1.667 3.981-2.685 5.926-3.056 3.241-6.297 6.019-10.742 7.223-8.241 2.222-14.909-.093-20.372-7.038z" fill="#FDFDFE"/><path d="M57.134 270.762c-1.296 3.334-1.296 6.853-1.76 10.279-1.11 9.167-2.777 18.15-3.61 27.317 0 .926.092 1.945.092 2.871-2.13 1.018-1.296 3.055-1.667 4.63-.278 1.296-.463 2.592-.74 4.259-2.038-1.944-3.797-3.704-5.557-5.371-.833-.833-.648-1.759-.555-2.778 2.5-20.464 4.908-40.836 7.315-61.301.278-2.315 1.019-4.167 2.87-5.648 2.13-1.76 3.983-3.704 6.668-6.297a2932.483 2932.483 0 01-2.315 18.057l-1.389 10.834c-.093 1.204.093 2.222.648 3.148z" fill="#DFDDF8"/><path d="M35.373 319.1c1.019-6.945 2.13-13.89 3.056-20.835 1.852-13.798 3.519-27.503 5.278-41.3.093-.741.093-1.574.093-2.315.648-4.815 1.389-9.723 2.13-15.001 2.778 4.167 4.26 7.963 3.611 12.871a1989.427 1989.427 0 00-6.945 56.949c-.463 4.63-3.241 7.223-6.019 10.186-.74.741-1.019.185-1.204-.555z" fill="#DFDCF8"/><path d="M49.819 234.741c3.981.463 8.056-.833 11.945.648-3.334 3.704-6.575 7.408-10.279 11.668-1.574-3.056-2.315-4.908-3.426-6.482-1.852-2.778-1.296-4.63 1.76-5.834z" fill="#DCDBF6"/><path d="M127.325 269.188c-2.222 2.5-4.537 5.093-7.13 7.964-1.667-2.963-3.056-4.815-3.426-7.223 3.426-2.037 6.945-1.667 10.556-.741z" fill="#F3F6F8"/><path d="M119.454 317.525a204.91 204.91 0 01-.926 4.353c-2.222-1.945-4.815-3.241-4.445-6.668-.092-3.981.278-7.871 1.019-11.852.278-1.204.463-2.315 1.481-3.149.926-5.648 2.223-11.297 2.593-16.946.278-4.907 2.871-7.778 7.038-10.741-2.223 15.371-4.538 30.187-6.76 45.003z" fill="#F8FCFC"/><path d="M113.62 312.895c-.185 3.704-1.759 6.668-5.185 8.89.833-5.834 1.574-11.297 2.407-16.853-.463-2.037-.092-3.889.834-5.741 1.389-8.149 2.685-16.298 4.074-24.447.093-.555.185-1.018.37-2.222 1.945 3.056 3.056 5.556 2.408 8.797-1.019 5.741-2.222 11.482-2.408 17.316-.74 4.815-.74 9.723-2.5 14.26z" fill="#F7FAFB"/><path d="M113.62 312.895c.741-4.815 1.019-9.63 2.408-14.353 0 .649.092 1.204.555 1.667-.74 5.001-1.203 10.001-2.5 14.909 0-.648.185-1.574-.463-2.223zm-2.037-13.704c-.278 1.944-.556 3.796-.833 5.741-.278-.278-.463-.556-.741-.834.278-2.129.555-4.259.833-6.482.278.556.463 1.112.741 1.575zm-2.13-41.578c.185-1.389 0-2.315-1.389-3.241-2.5-1.667-2.593-4.63-.741-6.574 1.76-1.852 4.816-1.76 6.482.185 1.76 2.13 1.482 5.093-1.111 6.482-1.574.833-1.852 1.852-1.944 3.426-.741 7.501-2.13 14.909-5.742 21.576-2.315 4.167-5 8.149-10.37 8.056-5.186-.093-7.872-3.982-10.094-7.964-3.797-6.759-5.093-14.26-5.927-21.853-.185-1.482-.463-2.5-2.037-3.334-2.5-1.389-2.685-4.63-.926-6.574 1.574-1.667 4.63-1.76 6.297-.186 1.945 1.852 1.852 5.001-.556 6.575-1.666 1.111-1.666 2.315-1.481 3.889.833 8.334 2.407 16.39 7.315 23.335 4.538 6.482 10.464 6.575 14.909.093 4.908-7.038 6.297-15.464 7.315-23.891zm-57.597 50.838c-1.852-2.038-.093-4.167.093-6.112 1.018-9.63 2.5-19.168 3.796-28.799.185-1.018.093-2.222 1.39-2.685-.834 9.26-1.945 18.52-3.612 27.687-.463 2.315-.463 4.723-.741 7.038-.185.926.37 2.222-.926 2.871z" fill="#282828"/><path d="M326.6 208.906v-1.297c.648-.926 2.408-1.759 0-2.685-1.852 0-1.111-1.852-1.944-2.686 2.407-.277 4.63.278 5.093 2.871.463 2.222-.834 3.611-3.149 3.797z" fill="#FDFDFE"/><path d="M373.456 119.547c0-2.964 1.852-5.464 4.074-5.556 2.223-.093 3.889 1.759 3.889 4.352 0 2.87-1.852 5.463-4.074 5.556-2.222.092-3.889-1.852-3.889-4.352z" fill="#F5FAFB"/><path d="M395.309 137.604c-.092 3.241-2.129 5.833-4.352 5.648-2.778-.185-3.704-2.037-3.704-4.537.093-3.056 2.037-5.371 4.445-5.186 2.593.278 3.426 2.13 3.611 4.075z" fill="#F6F8F9"/><path d="M300.95 207.609c-1.574 1.111-2.963 1.574-3.982.648-1.111-1.018-.092-2.222.463-3.241.741-1.389 1.574-2.778 2.5-4.352 1.019 1.76-.092 2.871-.74 3.889-1.297 1.852-1.76 3.241 1.759 3.056zm3.797-8.982c2.87-1.482 4.074-1.019 5.463 2.13-1.945-.926-3.519-2.037-5.463-2.13zm-6.945-.37c-1.575.463-2.13-.926-3.149-1.112-.741-.092-2.5.649-2.13-1.018.186-.926 1.76-.556 2.686-.278 1.204.278 2.315.741 2.593 2.408zm-.741 16.205c1.759.277 3.426.926 4.908-.649-1.112 2.593-2.408 2.778-4.908.649zm-2.778-13.427c-1.019 0-1.574-.463-1.574-1.389 0-.741.37-1.204 1.111-1.297.833-.092 1.481.371 1.574 1.204.093.833-.463 1.296-1.111 1.482zm13.056 1.203c-.092.926-.648 1.389-1.481 1.389-.741-.092-1.111-.648-1.204-1.389 0-.74.37-1.296 1.111-1.389.926 0 1.389.556 1.574 1.389zm19.261 2.778c-.185-.555-1.204-1.574.463-1.203.834.185 1.297 1.111 1.297 2.037 0 1.111-.463 1.852-1.76 1.759-.37-.833 1.389-1.759 0-2.593z" fill="#1D2844"/></svg>