<svg width="30" height="30" fill="none" xmlns="http://www.w3.org/2000/svg"><path d="M22.198 17.238c-.058-.028-2.245-1.105-2.634-1.245a1.512 1.512 0 00-.51-.112c-.294 0-.542.147-.736.436-.218.325-.88 1.098-1.084 1.329-.027.03-.063.067-.085.067-.02 0-.358-.14-.46-.184-2.347-1.02-4.127-3.47-4.372-3.883-.034-.06-.036-.087-.036-.087a.708.708 0 01.128-.15c.12-.119.248-.274.373-.424.06-.072.118-.143.177-.21.18-.21.261-.375.355-.564l.049-.099c.228-.453.033-.836-.03-.96-.052-.103-.975-2.332-1.073-2.566-.236-.565-.548-.828-.982-.828-.04 0 0 0-.168.007-.206.009-1.325.156-1.82.468-.524.33-1.411 1.385-1.411 3.238 0 1.669 1.059 3.244 1.513 3.843.012.015.032.046.062.09 1.741 2.542 3.912 4.427 6.111 5.305 2.118.846 3.121.944 3.692.944.24 0 .431-.019.6-.035l.108-.01c.731-.065 2.34-.899 2.705-1.915.288-.8.364-1.675.172-1.993-.13-.215-.357-.324-.643-.462z" fill="#fff"/><path d="M15.266 0C7.141 0 .531 6.56.531 14.624c0 2.609.698 5.161 2.02 7.396l-2.53 7.465a.39.39 0 00.487.497l7.784-2.474a14.835 14.835 0 006.974 1.739C23.39 29.247 30 22.687 30 14.624 30 6.56 23.39 0 15.266 0zm0 26.2c-2.293 0-4.513-.661-6.422-1.914a.389.389 0 00-.332-.045l-3.9 1.24 1.26-3.715a.39.39 0 00-.055-.355 11.419 11.419 0 01-2.222-6.787c0-6.384 5.236-11.578 11.671-11.578s11.67 5.194 11.67 11.578c0 6.384-5.235 11.577-11.67 11.577z" fill="#fff"/></svg>